<svg xmlns="http://www.w3.org/2000/svg" xmlns:xlink="http://www.w3.org/1999/xlink" width="500" zoomAndPan="magnify" viewBox="0 0 375 374.999991" height="500" preserveAspectRatio="xMidYMid meet" version="1.0"><defs><clipPath id="0f5a0fc60d"><path d="M 43 49 L 360.613281 49 L 360.613281 322 L 43 322 Z M 43 49 " clip-rule="nonzero"/></clipPath><clipPath id="4f0da911f4"><path d="M 14.113281 153 L 158 153 L 158 229 L 14.113281 229 Z M 14.113281 153 " clip-rule="nonzero"/></clipPath></defs><g clip-path="url(#0f5a0fc60d)"><path fill="#c8ede6" d="M 347.179688 211.984375 C 348.34375 209.597656 349.375 207.085938 350.265625 204.457031 C 360.46875 174.34375 345.035156 138.269531 312.542969 129.5625 C 309.03125 85.445312 278.023438 55.175781 243.003906 50.015625 C 202.925781 44.105469 166.210938 69.5625 153.992188 110.027344 C 139.269531 104.8125 124.917969 105.449219 111.398438 113.347656 C 105.261719 116.1875 99.648438 120.371094 94.613281 125.878906 C 87.222656 133.964844 82.417969 144.167969 80.460938 154.925781 C 77.5625 155.382812 74.710938 155.839844 72.027344 156.800781 C 56.367188 162.417969 46.488281 173.976562 43.777344 191.382812 C 42.09375 202.222656 45.496094 213.035156 47.394531 217.402344 C 54.894531 234.667969 72.285156 244.457031 89.957031 241.867188 C 90.835938 241.738281 92.113281 242.132812 92.871094 242.769531 C 93.804688 270.363281 107.203125 294.765625 127.304688 308.707031 C 159.554688 331.078125 201.050781 324.1875 227.226562 293.511719 C 238.441406 304.984375 251.792969 310.554688 267.472656 308.535156 C 283.066406 306.523438 295.171875 297.917969 304.007812 283.925781 C 308.089844 285.023438 311.957031 286.605469 315.957031 287.042969 C 331.621094 288.757812 344.238281 282.453125 353.675781 268.441406 C 353.996094 267.960938 354.460938 267.59375 354.863281 267.167969 C 356.210938 264.078125 357.558594 260.984375 358.90625 257.890625 C 359.507812 253.199219 360.570312 248.5 360.625 243.816406 C 360.777344 231.195312 355.617188 219.695312 347.179688 211.984375 Z M 347.179688 211.984375 " fill-opacity="1" fill-rule="nonzero"/></g><path fill="#ffffff" d="M 105.578125 124.589844 L 66.703125 124.589844 C 65.636719 124.589844 64.765625 123.71875 64.765625 122.652344 C 64.765625 121.582031 65.636719 120.714844 66.703125 120.714844 L 105.578125 120.714844 C 106.648438 120.714844 107.515625 121.582031 107.515625 122.652344 C 107.515625 123.71875 106.652344 124.589844 105.578125 124.589844 Z M 118.683594 122.652344 C 118.683594 121.582031 117.816406 120.714844 116.746094 120.714844 L 111.140625 120.714844 C 110.070312 120.714844 109.203125 121.582031 109.203125 122.652344 C 109.203125 123.71875 110.070312 124.589844 111.140625 124.589844 L 116.746094 124.589844 C 117.820312 124.589844 118.683594 123.71875 118.683594 122.652344 Z M 134.398438 122.652344 C 134.398438 121.582031 133.53125 120.714844 132.460938 120.714844 L 122.59375 120.714844 C 121.523438 120.714844 120.65625 121.582031 120.65625 122.652344 C 120.65625 123.71875 121.523438 124.589844 122.59375 124.589844 L 132.460938 124.589844 C 133.535156 124.589844 134.398438 123.71875 134.398438 122.652344 Z M 134.398438 130.402344 C 134.398438 129.332031 133.53125 128.464844 132.460938 128.464844 L 95.191406 128.464844 C 94.121094 128.464844 93.253906 129.332031 93.253906 130.402344 C 93.253906 131.472656 94.121094 132.339844 95.191406 132.339844 L 132.460938 132.339844 C 133.535156 132.339844 134.398438 131.472656 134.398438 130.402344 Z M 90.417969 130.402344 C 90.417969 129.332031 89.546875 128.464844 88.480469 128.464844 L 86.230469 128.464844 C 85.160156 128.464844 84.292969 129.332031 84.292969 130.402344 C 84.292969 131.472656 85.160156 132.339844 86.230469 132.339844 L 88.480469 132.339844 C 89.546875 132.339844 90.417969 131.472656 90.417969 130.402344 Z M 81.207031 130.402344 C 81.207031 129.332031 80.339844 128.464844 79.269531 128.464844 L 73.621094 128.464844 C 72.554688 128.464844 71.683594 129.332031 71.683594 130.402344 C 71.683594 131.472656 72.554688 132.339844 73.621094 132.339844 L 79.269531 132.339844 C 80.339844 132.339844 81.207031 131.472656 81.207031 130.402344 Z M 116.613281 114.898438 C 116.613281 113.828125 115.746094 112.960938 114.675781 112.960938 L 95.191406 112.960938 C 94.121094 112.960938 93.253906 113.832031 93.253906 114.898438 C 93.253906 115.96875 94.121094 116.835938 95.191406 116.835938 L 114.675781 116.835938 C 115.75 116.835938 116.613281 115.96875 116.613281 114.898438 Z M 116.613281 107.148438 C 116.613281 106.078125 115.746094 105.210938 114.675781 105.210938 L 109.804688 105.210938 C 108.734375 105.210938 107.867188 106.078125 107.867188 107.148438 C 107.867188 108.21875 108.734375 109.085938 109.804688 109.085938 L 114.675781 109.085938 C 115.75 109.085938 116.613281 108.21875 116.613281 107.148438 Z M 103.945312 138.152344 C 103.945312 137.082031 103.074219 136.214844 102.003906 136.214844 L 95.191406 136.214844 C 94.121094 136.214844 93.253906 137.082031 93.253906 138.152344 C 93.253906 139.222656 94.121094 140.089844 95.191406 140.089844 L 102.003906 140.089844 C 103.078125 140.089844 103.945312 139.222656 103.945312 138.152344 Z M 329.777344 202.097656 L 290.902344 202.097656 C 289.832031 202.097656 288.964844 201.230469 288.964844 200.160156 C 288.964844 199.09375 289.832031 198.222656 290.902344 198.222656 L 329.78125 198.222656 C 330.851562 198.222656 331.71875 199.09375 331.71875 200.160156 C 331.71875 201.230469 330.851562 202.097656 329.777344 202.097656 Z M 342.882812 200.160156 C 342.882812 199.09375 342.011719 198.222656 340.945312 198.222656 L 335.339844 198.222656 C 334.269531 198.222656 333.402344 199.09375 333.402344 200.160156 C 333.402344 201.230469 334.269531 202.097656 335.339844 202.097656 L 340.945312 202.097656 C 342.015625 202.097656 342.882812 201.230469 342.882812 200.160156 Z M 358.597656 200.160156 C 358.597656 199.09375 357.730469 198.222656 356.660156 198.222656 L 346.792969 198.222656 C 345.722656 198.222656 344.855469 199.09375 344.855469 200.160156 C 344.855469 201.230469 345.722656 202.097656 346.792969 202.097656 L 356.660156 202.097656 C 357.730469 202.097656 358.597656 201.230469 358.597656 200.160156 Z M 350.746094 184.660156 C 350.746094 183.589844 349.878906 182.722656 348.808594 182.722656 L 311.539062 182.722656 C 310.46875 182.722656 309.597656 183.589844 309.597656 184.660156 C 309.597656 185.730469 310.46875 186.597656 311.539062 186.597656 L 348.808594 186.597656 C 349.878906 186.597656 350.746094 185.730469 350.746094 184.660156 Z M 306.761719 184.660156 C 306.761719 183.589844 305.894531 182.722656 304.824219 182.722656 L 302.578125 182.722656 C 301.507812 182.722656 300.636719 183.589844 300.636719 184.660156 C 300.636719 185.730469 301.507812 186.597656 302.578125 186.597656 L 304.824219 186.597656 C 305.898438 186.597656 306.761719 185.730469 306.761719 184.660156 Z M 297.550781 184.660156 C 297.550781 183.589844 296.679688 182.722656 295.613281 182.722656 L 289.96875 182.722656 C 288.898438 182.722656 288.03125 183.589844 288.03125 184.660156 C 288.03125 185.730469 288.898438 186.597656 289.96875 186.597656 L 295.613281 186.597656 C 296.683594 186.597656 297.550781 185.730469 297.550781 184.660156 Z M 340.8125 192.410156 C 340.8125 191.339844 339.945312 190.472656 338.875 190.472656 L 319.390625 190.472656 C 318.320312 190.472656 317.453125 191.339844 317.453125 192.410156 C 317.453125 193.480469 318.320312 194.347656 319.390625 194.347656 L 338.875 194.347656 C 339.945312 194.347656 340.8125 193.480469 340.8125 192.410156 Z M 340.8125 184.660156 C 340.8125 183.589844 339.945312 182.722656 338.875 182.722656 L 334 182.722656 C 332.933594 182.722656 332.0625 183.589844 332.0625 184.660156 C 332.0625 185.730469 332.933594 186.597656 334 186.597656 L 338.875 186.597656 C 339.945312 186.597656 340.8125 185.730469 340.8125 184.660156 Z M 315.683594 192.410156 C 315.683594 191.339844 314.816406 190.472656 313.746094 190.472656 L 306.933594 190.472656 C 305.863281 190.472656 304.996094 191.339844 304.996094 192.410156 C 304.996094 193.480469 305.863281 194.347656 306.933594 194.347656 L 313.746094 194.347656 C 314.820312 194.347656 315.683594 193.480469 315.683594 192.410156 Z M 315.683594 192.410156 " fill-opacity="1" fill-rule="nonzero"/><path fill="#fdfcef" d="M 313.371094 121.824219 C 320.667969 121.824219 327.003906 121.824219 327.089844 121.824219 C 335.269531 121.824219 341.902344 115.335938 341.902344 107.335938 C 341.902344 100.351562 336.855469 94.527344 330.136719 93.148438 C 330.214844 92.539062 330.269531 91.921875 330.269531 91.289062 C 330.269531 83 323.402344 76.28125 314.933594 76.28125 C 309.933594 76.28125 305.503906 78.632812 302.703125 82.261719 C 301.988281 73.03125 293.566406 65.914062 283.710938 67.09375 C 276.507812 67.960938 270.546875 73.40625 269.222656 80.390625 C 268.792969 82.632812 268.839844 84.804688 269.265625 86.84375 C 267.332031 84.808594 264.582031 83.527344 261.519531 83.527344 C 255.914062 83.527344 251.339844 87.796875 250.976562 93.191406 C 248.429688 92.640625 245.664062 92.675781 242.75 93.746094 C 237.175781 95.792969 233.207031 100.929688 232.972656 106.753906 C 232.644531 115.019531 239.394531 121.824219 247.773438 121.824219 C 248.40625 121.824219 250.644531 121.824219 251.160156 121.824219 L 281.910156 121.824219 M 288.265625 121.824219 L 289.664062 121.824219 " fill-opacity="1" fill-rule="nonzero"/><path fill="#472b29" d="M 327.089844 123.765625 L 313.371094 123.765625 C 312.300781 123.765625 311.433594 122.898438 311.433594 121.828125 C 311.433594 120.757812 312.300781 119.890625 313.371094 119.890625 L 327.089844 119.890625 C 334.1875 119.890625 339.960938 114.261719 339.960938 107.339844 C 339.960938 101.433594 335.667969 96.261719 329.746094 95.054688 C 328.753906 94.847656 328.082031 93.914062 328.210938 92.90625 C 328.28125 92.375 328.328125 91.839844 328.328125 91.289062 C 328.328125 84.082031 322.316406 78.21875 314.929688 78.21875 C 310.695312 78.21875 306.796875 80.121094 304.230469 83.445312 C 303.742188 84.082031 302.910156 84.339844 302.140625 84.121094 C 301.375 83.886719 300.828125 83.214844 300.765625 82.414062 C 300.460938 78.460938 298.578125 74.882812 295.460938 72.324219 C 292.246094 69.6875 288.15625 68.527344 283.9375 69.015625 C 277.558594 69.78125 272.285156 74.605469 271.121094 80.75 C 270.753906 82.667969 270.765625 84.585938 271.15625 86.453125 C 271.328125 87.300781 270.921875 88.164062 270.15625 88.566406 C 269.390625 88.960938 268.449219 88.808594 267.851562 88.179688 C 266.195312 86.429688 263.941406 85.464844 261.515625 85.464844 C 256.984375 85.464844 253.203125 88.917969 252.90625 93.320312 C 252.867188 93.886719 252.589844 94.398438 252.140625 94.738281 C 251.691406 95.078125 251.117188 95.203125 250.566406 95.085938 C 248.089844 94.550781 245.75 94.703125 243.410156 95.570312 C 238.519531 97.363281 235.101562 101.890625 234.90625 106.828125 C 234.769531 110.222656 236 113.449219 238.375 115.917969 C 240.835938 118.476562 244.171875 119.886719 247.765625 119.886719 L 281.898438 119.886719 C 282.96875 119.886719 283.835938 120.753906 283.835938 121.824219 C 283.835938 122.894531 282.96875 123.761719 281.898438 123.761719 L 247.765625 123.761719 C 243.171875 123.761719 238.730469 121.882812 235.578125 118.605469 C 232.464844 115.363281 230.855469 111.128906 231.03125 106.675781 C 231.292969 100.183594 235.730469 94.257812 242.074219 91.925781 C 244.4375 91.054688 246.878906 90.746094 249.359375 90.980469 C 250.695312 85.570312 255.675781 81.585938 261.511719 81.585938 C 263.421875 81.585938 265.296875 82.023438 266.992188 82.835938 C 267.027344 81.898438 267.136719 80.960938 267.3125 80.019531 C 268.789062 72.234375 275.4375 66.125 283.476562 65.164062 C 288.765625 64.519531 293.882812 66.007812 297.917969 69.316406 C 300.816406 71.691406 302.871094 74.777344 303.910156 78.238281 C 306.976562 75.726562 310.832031 74.335938 314.925781 74.335938 C 324.453125 74.335938 332.199219 81.9375 332.199219 91.28125 C 332.199219 91.414062 332.199219 91.546875 332.195312 91.679688 C 339.03125 93.832031 343.835938 100.160156 343.835938 107.332031 C 343.839844 116.394531 336.328125 123.765625 327.089844 123.765625 Z M 289.664062 123.765625 L 288.265625 123.765625 C 287.195312 123.765625 286.328125 122.898438 286.328125 121.828125 C 286.328125 120.757812 287.195312 119.890625 288.265625 119.890625 L 289.664062 119.890625 C 290.730469 119.890625 291.601562 120.757812 291.601562 121.828125 C 291.601562 122.898438 290.730469 123.765625 289.664062 123.765625 Z M 289.664062 123.765625 " fill-opacity="1" fill-rule="nonzero"/><path fill="#472b29" d="M 320.476562 101.273438 C 320.40625 101.273438 320.335938 101.265625 320.261719 101.25 C 319.738281 101.132812 319.410156 100.613281 319.53125 100.089844 C 319.671875 99.457031 319.894531 98.832031 320.1875 98.234375 C 322.53125 93.492188 328.996094 91.734375 334.613281 94.332031 C 335.097656 94.558594 335.3125 95.128906 335.085938 95.613281 C 334.863281 96.101562 334.285156 96.308594 333.800781 96.085938 C 329.144531 93.933594 323.8125 95.28125 321.929688 99.085938 C 321.703125 99.542969 321.535156 100.027344 321.425781 100.511719 C 321.320312 100.96875 320.921875 101.273438 320.476562 101.273438 Z M 300.480469 123.765625 L 296.1875 123.765625 C 295.121094 123.765625 294.25 122.898438 294.25 121.828125 C 294.25 120.757812 295.121094 119.890625 296.1875 119.890625 L 300.480469 119.890625 C 301.550781 119.890625 302.417969 120.757812 302.417969 121.828125 C 302.417969 122.898438 301.554688 123.765625 300.480469 123.765625 Z M 300.480469 123.765625 " fill-opacity="1" fill-rule="nonzero"/><path fill="#fabf82" d="M 272.183594 249.394531 C 269.582031 247.554688 236.230469 235.863281 236.230469 235.863281 C 234.109375 235.292969 232.929688 233.558594 232.550781 231.621094 C 231.480469 226.132812 231.609375 212.929688 231.636719 210.574219 C 231.640625 210.390625 231.46875 210.25 231.261719 210.25 L 197.816406 210.25 C 197.605469 210.25 197.441406 210.394531 197.441406 210.574219 C 197.464844 212.910156 197.574219 225.839844 196.527344 231.621094 C 196.171875 233.566406 194.96875 235.292969 192.847656 235.863281 L 165.585938 245.347656 C 162.855469 246.101562 160.234375 247.183594 157.929688 248.691406 C 145.894531 256.5625 145.550781 269.445312 145.050781 271.84375 C 145.007812 272.050781 145.1875 272.234375 145.417969 272.234375 L 283.65625 272.234375 C 283.890625 272.234375 284.066406 272.050781 284.023438 271.84375 C 283.546875 269.511719 283.367188 257.300781 272.183594 249.394531 Z M 272.183594 249.394531 " fill-opacity="1" fill-rule="nonzero"/><path fill="#472b29" d="M 231.265625 210.226562 C 231.472656 210.226562 231.640625 210.367188 231.640625 210.550781 C 231.613281 212.898438 231.484375 226.027344 232.554688 231.484375 C 232.933594 233.414062 234.113281 235.136719 236.234375 235.703125 C 236.234375 235.703125 269.585938 247.332031 272.1875 249.164062 C 283.371094 257.035156 283.550781 269.179688 284.035156 271.492188 C 284.078125 271.695312 283.898438 271.878906 283.667969 271.878906 L 145.425781 271.878906 C 145.191406 271.878906 145.015625 271.691406 145.058594 271.492188 C 145.558594 269.105469 145.902344 256.292969 157.9375 248.460938 C 160.242188 246.960938 162.863281 245.894531 165.59375 245.136719 L 192.855469 235.703125 C 194.976562 235.136719 196.179688 233.417969 196.535156 231.484375 C 197.578125 225.738281 197.472656 212.871094 197.449219 210.550781 C 197.445312 210.367188 197.613281 210.226562 197.820312 210.226562 L 231.265625 210.226562 M 231.265625 206.371094 L 197.820312 206.371094 C 196.679688 206.371094 195.574219 206.828125 194.777344 207.625 C 193.988281 208.425781 193.558594 209.472656 193.570312 210.59375 C 193.644531 217.675781 193.460938 226.710938 192.714844 230.792969 C 192.535156 231.796875 192.015625 231.933594 191.84375 231.980469 L 191.707031 232.015625 L 191.578125 232.0625 L 164.425781 241.457031 C 161.164062 242.367188 158.261719 243.636719 155.808594 245.234375 C 143.644531 253.148438 141.945312 265.679688 141.386719 269.796875 C 141.332031 270.1875 141.300781 270.5 141.257812 270.703125 C 141 271.933594 141.3125 273.199219 142.109375 274.171875 C 142.917969 275.167969 144.125 275.734375 145.417969 275.734375 L 283.65625 275.734375 C 284.949219 275.734375 286.15625 275.167969 286.964844 274.175781 C 287.761719 273.199219 288.074219 271.9375 287.816406 270.707031 C 287.773438 270.496094 287.738281 270.179688 287.6875 269.777344 C 287.128906 265.441406 285.652344 253.925781 274.410156 246.015625 C 271.761719 244.15625 250.152344 236.480469 237.503906 232.070312 L 237.371094 232.023438 L 237.230469 231.984375 C 237.0625 231.9375 236.554688 231.800781 236.351562 230.746094 C 235.59375 226.890625 235.417969 217.8125 235.507812 210.597656 C 235.519531 209.480469 235.09375 208.425781 234.300781 207.628906 C 233.511719 206.828125 232.40625 206.371094 231.265625 206.371094 Z M 231.265625 206.371094 " fill-opacity="1" fill-rule="nonzero"/><path fill="#fdfcef" d="M 272.648438 249.023438 C 270.039062 247.15625 267.03125 245.785156 263.84375 244.890625 L 260.492188 243.984375 C 260.515625 243.980469 260.539062 243.976562 260.558594 243.96875 L 243.085938 238.21875 C 234.222656 240.632812 224.710938 241.960938 214.796875 241.960938 C 204.882812 241.960938 195.371094 240.628906 186.507812 238.21875 L 169.035156 243.96875 C 169.058594 243.976562 169.082031 243.976562 169.105469 243.984375 L 165.667969 244.914062 C 162.925781 245.679688 160.292969 246.777344 157.984375 248.308594 C 145.902344 256.304688 145.558594 269.394531 145.058594 271.828125 C 145.015625 272.039062 145.195312 272.222656 145.425781 272.222656 L 284.167969 272.222656 C 284.402344 272.222656 284.578125 272.035156 284.535156 271.828125 C 284.050781 269.46875 283.875 257.066406 272.648438 249.023438 Z M 272.648438 249.023438 " fill-opacity="1" fill-rule="nonzero"/><path fill="#97aec7" d="M 206.921875 259.769531 L 199.363281 243.28125 L 229.625 243.28125 L 222.066406 259.769531 C 218.703125 265.601562 210.285156 265.601562 206.921875 259.769531 Z M 206.921875 259.769531 " fill-opacity="1" fill-rule="nonzero"/><path fill="#eaeae8" d="M 247.589844 239.699219 L 243.085938 238.21875 C 234.507812 240.554688 225.316406 241.84375 215.746094 241.929688 L 214.496094 243.484375 L 231.285156 264.304688 Z M 214.496094 243.484375 L 213.222656 241.90625 C 203.878906 241.769531 194.898438 240.5 186.507812 238.21875 L 181.503906 239.867188 L 197.699219 264.304688 Z M 214.496094 243.484375 " fill-opacity="1" fill-rule="nonzero"/><path fill="#66798f" d="M 206.300781 267.175781 L 205.523438 272.222656 L 223.46875 272.222656 L 222.6875 267.175781 C 219.042969 260.574219 209.945312 260.574219 206.300781 267.175781 Z M 206.300781 267.175781 " fill-opacity="1" fill-rule="nonzero"/><path fill="#472b29" d="M 145.425781 272.8125 C 145.316406 272.8125 145.207031 272.78125 145.109375 272.71875 C 144.839844 272.542969 144.765625 272.179688 144.941406 271.914062 L 163.644531 243.300781 C 163.816406 243.03125 164.183594 242.953125 164.449219 243.128906 C 164.71875 243.308594 164.792969 243.667969 164.617188 243.9375 L 145.914062 272.550781 C 145.804688 272.714844 145.617188 272.8125 145.425781 272.8125 Z M 151.1875 273.773438 C 151.078125 273.773438 150.964844 273.742188 150.867188 273.679688 C 150.601562 273.503906 150.523438 273.140625 150.703125 272.875 L 171.585938 240.925781 C 171.757812 240.652344 172.125 240.574219 172.390625 240.753906 C 172.660156 240.933594 172.734375 241.292969 172.558594 241.558594 L 151.675781 273.511719 C 151.5625 273.675781 151.375 273.773438 151.1875 273.773438 Z M 158.308594 272.8125 C 158.203125 272.8125 158.089844 272.78125 157.992188 272.71875 C 157.726562 272.542969 157.648438 272.179688 157.824219 271.914062 L 178.707031 239.964844 C 178.882812 239.695312 179.246094 239.617188 179.515625 239.792969 C 179.78125 239.972656 179.859375 240.332031 179.679688 240.597656 L 158.796875 272.550781 C 158.6875 272.714844 158.5 272.8125 158.308594 272.8125 Z M 162.074219 276.679688 C 161.964844 276.679688 161.851562 276.648438 161.753906 276.585938 C 161.488281 276.410156 161.410156 276.046875 161.589844 275.78125 L 182.472656 243.832031 C 182.648438 243.558594 183.011719 243.484375 183.277344 243.660156 C 183.546875 243.839844 183.625 244.199219 183.445312 244.46875 L 162.5625 276.417969 C 162.445312 276.582031 162.257812 276.679688 162.074219 276.679688 Z M 170.160156 274.480469 C 170.050781 274.480469 169.9375 274.449219 169.839844 274.386719 C 169.574219 274.207031 169.496094 273.847656 169.675781 273.578125 L 184.511719 250.878906 C 184.683594 250.613281 185.050781 250.535156 185.316406 250.710938 C 185.585938 250.886719 185.660156 251.25 185.484375 251.515625 L 170.648438 274.214844 C 170.53125 274.386719 170.347656 274.480469 170.160156 274.480469 Z M 176.402344 275.191406 C 176.292969 275.191406 176.179688 275.160156 176.085938 275.097656 C 175.816406 274.921875 175.738281 274.558594 175.917969 274.292969 L 183.335938 262.941406 C 183.511719 262.675781 183.871094 262.597656 184.140625 262.769531 C 184.410156 262.949219 184.488281 263.308594 184.308594 263.578125 L 176.890625 274.929688 C 176.777344 275.097656 176.59375 275.191406 176.402344 275.191406 Z M 176.402344 275.191406 " fill-opacity="1" fill-rule="nonzero"/><path fill="#edbc94" d="M 262.625 156.265625 C 262.171875 156.234375 261.710938 156.230469 261.230469 156.230469 C 257.488281 156.054688 256.421875 157.527344 256.59375 155.242188 C 256.894531 151.1875 256.324219 134.738281 256.324219 133.910156 C 256.324219 116.863281 238.289062 102.96875 215.757812 102.195312 L 215.757812 102.144531 C 215.605469 102.148438 215.460938 102.164062 215.304688 102.167969 C 215.152344 102.164062 215.003906 102.144531 214.851562 102.144531 L 214.851562 102.195312 C 192.316406 102.96875 174.285156 116.863281 174.285156 133.910156 C 174.285156 134.738281 173.710938 151.1875 174.015625 155.242188 C 174.183594 157.523438 173.121094 156.050781 169.378906 156.230469 C 168.898438 156.230469 168.4375 156.234375 167.984375 156.265625 C 163.882812 156.539062 160.566406 159.113281 159.855469 162.300781 C 160.359375 162.605469 162.226562 176.570312 165.246094 182.074219 C 166.9375 185.148438 169.574219 185.574219 172.28125 187.558594 C 173.78125 188.660156 174.074219 189.894531 174.484375 191.539062 C 176.003906 197.621094 180.222656 202.789062 184.847656 207.203125 C 187.128906 209.382812 202.285156 225.320312 215.304688 224.515625 C 228.386719 224.03125 243.476562 209.382812 245.761719 207.203125 C 250.382812 202.789062 254.605469 197.621094 256.125 191.539062 C 256.535156 189.894531 256.820312 188.65625 258.324219 187.558594 C 261.035156 185.574219 263.671875 185.148438 265.359375 182.074219 C 268.382812 176.570312 270.253906 162.605469 270.753906 162.300781 C 270.042969 159.113281 266.726562 156.535156 262.625 156.265625 Z M 262.625 156.265625 " fill-opacity="1" fill-rule="nonzero"/><path fill="#512c2b" d="M 215.535156 186.824219 C 218.183594 186.824219 220.75 185.671875 222.402344 183.738281 C 222.566406 183.542969 222.542969 183.25 222.351562 183.082031 C 222.15625 182.914062 221.867188 182.933594 221.695312 183.128906 C 220.351562 184.667969 218.101562 185.550781 215.535156 185.550781 C 212.96875 185.550781 210.722656 184.667969 209.378906 183.128906 C 209.285156 183.023438 209.15625 182.96875 209.027344 182.96875 C 208.917969 182.96875 208.808594 183.007812 208.722656 183.082031 C 208.53125 183.25 208.507812 183.542969 208.671875 183.738281 C 210.324219 185.671875 212.890625 186.824219 215.535156 186.824219 Z M 207.09375 147.195312 L 208.773438 143.96875 C 201.671875 142.308594 193.5 142.570312 186.75 144.664062 L 188.867188 147.808594 C 194.414062 145.976562 201.234375 145.746094 207.09375 147.195312 Z M 242.640625 147.195312 L 244.320312 143.96875 C 237.21875 142.308594 229.042969 142.570312 222.296875 144.664062 L 224.414062 147.808594 C 229.960938 145.976562 236.785156 145.746094 242.640625 147.195312 Z M 196.875 151.746094 C 195.167969 151.746094 193.671875 152.871094 192.808594 154.578125 C 193.027344 154.511719 193.246094 154.464844 193.484375 154.464844 C 194.882812 154.464844 196.015625 155.734375 196.015625 157.289062 C 196.015625 158.851562 194.878906 160.117188 193.484375 160.117188 C 193.027344 160.117188 192.601562 159.96875 192.230469 159.730469 C 192.828125 162.292969 194.679688 164.15625 196.878906 164.15625 C 199.558594 164.15625 201.730469 161.378906 201.730469 157.949219 C 201.726562 154.527344 199.554688 151.746094 196.875 151.746094 Z M 233.992188 151.746094 C 232.535156 151.746094 231.234375 152.570312 230.347656 153.867188 C 230.625 153.753906 230.925781 153.679688 231.238281 153.679688 C 232.636719 153.679688 233.769531 154.945312 233.769531 156.503906 C 233.769531 158.066406 232.632812 159.328125 231.238281 159.328125 C 230.371094 159.328125 229.605469 158.839844 229.148438 158.097656 C 229.210938 161.457031 231.355469 164.152344 233.992188 164.152344 C 236.671875 164.152344 238.847656 161.375 238.847656 157.945312 C 238.84375 154.527344 236.671875 151.746094 233.992188 151.746094 Z M 236.050781 194.019531 C 236.25 193.855469 236.28125 193.566406 236.121094 193.367188 C 235.960938 193.171875 235.667969 193.136719 235.464844 193.296875 C 231.09375 196.78125 223.832031 198.78125 215.539062 198.78125 C 207.25 198.78125 199.988281 196.78125 195.609375 193.292969 C 195.527344 193.222656 195.425781 193.195312 195.320312 193.195312 C 195.183594 193.195312 195.050781 193.25 194.957031 193.367188 C 194.796875 193.566406 194.824219 193.859375 195.023438 194.023438 C 199.960938 198.058594 207.628906 200.46875 215.535156 200.46875 C 223.445312 200.464844 231.109375 198.058594 236.050781 194.019531 Z M 236.050781 194.019531 " fill-opacity="1" fill-rule="nonzero"/><path fill="#d3a47d" d="M 262.863281 174.507812 L 260.550781 174.253906 L 261.328125 167.359375 L 257.410156 169.054688 L 256.488281 166.921875 L 262.25 164.425781 C 262.625 164.261719 263.070312 164.3125 263.398438 164.558594 C 263.734375 164.800781 263.910156 165.207031 263.863281 165.617188 Z M 169 173.179688 L 168 164.289062 C 167.953125 163.878906 168.132812 163.472656 168.464844 163.226562 C 168.796875 162.984375 169.234375 162.921875 169.621094 163.097656 L 175.378906 165.59375 L 174.457031 167.726562 L 170.539062 166.03125 L 171.316406 172.925781 Z M 169 173.179688 " fill-opacity="1" fill-rule="nonzero"/><path fill="#472b29" d="M 174.191406 190.394531 C 174.1875 190.394531 174.183594 190.394531 174.179688 190.394531 C 173.75 190.386719 173.410156 190.03125 173.417969 189.605469 L 174.058594 156.09375 C 174.066406 155.667969 174.328125 155.296875 174.847656 155.332031 C 175.273438 155.339844 175.617188 155.699219 175.609375 156.125 L 174.96875 189.636719 C 174.957031 190.0625 174.613281 190.394531 174.191406 190.394531 Z M 257.054688 190.394531 C 256.632812 190.394531 256.289062 190.058594 256.28125 189.636719 L 255.644531 156.125 C 255.636719 155.699219 255.976562 155.339844 256.402344 155.332031 C 256.40625 155.332031 256.414062 155.332031 256.417969 155.332031 C 256.839844 155.332031 257.1875 155.671875 257.195312 156.09375 L 257.828125 189.605469 C 257.835938 190.03125 257.496094 190.386719 257.070312 190.394531 C 257.0625 190.394531 257.058594 190.394531 257.054688 190.394531 Z M 240.582031 211.402344 C 233.632812 216.15625 220.539062 218.789062 218.011719 214.671875 C 216.160156 211.652344 213.484375 211.652344 211.628906 214.671875 C 208.875 219.160156 194.847656 214.515625 187.660156 209.378906 C 185.640625 209.476562 187.617188 210.058594 186.027344 211.460938 C 195.417969 219.523438 213.773438 230.496094 214.769531 230.148438 C 214.769531 230.148438 214.816406 230.175781 214.824219 230.175781 L 214.878906 230.148438 C 215.816406 230.167969 231.691406 220.980469 241.480469 213.160156 C 240.105469 211.484375 242.789062 211.441406 240.582031 211.402344 Z M 240.582031 211.402344 " fill-opacity="1" fill-rule="nonzero"/><path fill="#472b29" d="M 255.097656 112.59375 C 255.097656 112.59375 263.5625 114.3125 263.308594 122.652344 C 263.0625 130.992188 257.265625 167.234375 257.265625 167.234375 L 245.386719 130.007812 Z M 255.097656 112.59375 " fill-opacity="1" fill-rule="nonzero"/><path fill="#472b29" d="M 210.292969 89.292969 L 205.8125 83.164062 C 205.8125 83.164062 256.167969 77.664062 256.09375 104.988281 C 256 141.292969 223.234375 148.886719 223.234375 148.886719 L 225.722656 139.078125 L 206.058594 149.378906 L 208.546875 143.492188 L 192.121094 149.378906 L 198.09375 135.894531 L 183.410156 141.289062 C 183.410156 141.289062 177.65625 155.621094 175.539062 167.234375 C 175.539062 167.234375 164.113281 128.816406 171.460938 125.835938 L 168.722656 124.363281 L 172.207031 117.496094 L 166.980469 115.289062 L 171.460938 108.910156 L 169.46875 106.214844 L 179.425781 100.574219 L 174.195312 97.878906 C 174.195312 97.878906 190.875 84.144531 210.292969 89.292969 Z M 210.292969 89.292969 " fill-opacity="1" fill-rule="nonzero"/><path fill="#66798f" d="M 210.199219 153.5625 C 202.484375 144.160156 173.394531 150.824219 173.363281 150.820312 C 173.898438 152.945312 174.359375 155.042969 174.78125 157.117188 C 176.941406 157.339844 177.070312 162.191406 177.285156 163.96875 C 178.332031 172.539062 184.070312 178.863281 196.148438 178.5625 C 208.253906 177.933594 211.082031 169.171875 211.582031 163.65625 C 212.121094 157.640625 210.195312 153.582031 210.199219 153.5625 Z M 208.820312 164.097656 C 208.195312 171.78125 203.480469 176.277344 195.851562 176.644531 C 195.082031 176.6875 194.328125 176.691406 193.609375 176.660156 C 181.589844 176.636719 179.535156 166.117188 179.296875 159.464844 C 179.144531 155.65625 181.863281 152.394531 185.699219 152.015625 C 187.90625 151.796875 190.390625 151.796875 193.261719 151.796875 C 202.246094 151.796875 206.152344 153.941406 207.195312 155.664062 C 207.804688 156.691406 209.167969 159.921875 208.820312 164.097656 Z M 218.71875 163.65625 C 219.21875 169.171875 222.046875 177.933594 234.152344 178.5625 C 246.234375 178.863281 251.96875 172.539062 253.015625 163.96875 C 253.230469 162.191406 253.355469 157.339844 255.519531 157.117188 C 255.9375 155.042969 256.402344 152.945312 256.9375 150.820312 C 256.90625 150.824219 227.820312 144.15625 220.101562 153.5625 C 220.097656 153.582031 218.171875 157.640625 218.71875 163.65625 Z M 223.101562 155.667969 C 224.140625 153.945312 228.050781 151.800781 237.035156 151.800781 C 239.902344 151.800781 242.386719 151.800781 244.597656 152.019531 C 248.433594 152.398438 251.15625 155.660156 251 159.46875 C 250.765625 166.121094 248.707031 176.640625 236.6875 176.664062 C 235.96875 176.695312 235.21875 176.6875 234.445312 176.648438 C 226.816406 176.28125 222.101562 171.78125 221.476562 164.101562 C 221.128906 159.921875 222.488281 156.691406 223.101562 155.667969 Z M 223.101562 155.667969 " fill-opacity="1" fill-rule="nonzero"/><path fill="#66798f" d="M 220.367188 160.949219 C 220.367188 160.949219 218.394531 159.390625 214.945312 159.394531 C 211.710938 159.394531 209.929688 160.949219 209.929688 160.949219 C 209.402344 159.492188 208.875 158.035156 208.34375 156.582031 C 212.878906 156.582031 217.414062 156.582031 221.949219 156.582031 C 221.421875 158.039062 220.894531 159.492188 220.367188 160.949219 Z M 220.367188 160.949219 " fill-opacity="1" fill-rule="nonzero"/><path fill="#472b29" d="M 264.503906 155.636719 C 262.730469 155.1875 260.84375 155.144531 258.847656 154.894531 C 258.847656 154.683594 258.339844 155.125 258.339844 154.910156 C 257.082031 154.785156 256.414062 153.296875 256.394531 151.746094 C 256.359375 148.609375 255.96875 145.171875 256.25 141.886719 C 256.328125 138.921875 255.800781 137.023438 255.230469 134.925781 C 255.320312 134.0625 255.371094 133.195312 255.371094 132.316406 C 255.371094 114.335938 236.808594 99.710938 213.992188 99.710938 C 191.171875 99.710938 172.609375 114.335938 172.609375 132.316406 C 172.609375 133.167969 172.664062 134.011719 172.746094 134.84375 C 172.523438 138.09375 172.222656 140.988281 172.367188 144.542969 C 172.496094 147.691406 172.050781 150.027344 172.34375 154.183594 C 172.511719 156.523438 171.472656 155.015625 167.832031 155.199219 C 167.367188 155.199219 166.917969 155.203125 166.476562 155.234375 C 161.527344 155.574219 157.746094 159.550781 158.53125 163.851562 C 159.441406 168.835938 160.53125 173.792969 161.761719 178.714844 C 162.984375 183.582031 165.390625 187.570312 171.226562 188.136719 C 171.980469 194.46875 173.320312 197.683594 177.3125 202.675781 C 182.734375 209.460938 189.164062 215.242188 196.9375 219.457031 C 197.742188 219.894531 202.519531 222.539062 202.519531 222.503906 C 210.644531 225.863281 218.441406 226.148438 226.664062 222.339844 C 226.664062 222.371094 226.664062 222.402344 226.664062 222.4375 C 226.714844 222.40625 231.84375 219.855469 232.8125 219.207031 C 236.710938 216.585938 240.6875 213.964844 244.117188 210.835938 C 250.917969 204.625 257.335938 198.046875 258.007812 188.117188 C 263.777344 187.597656 266.167969 183.667969 267.398438 178.910156 C 268.605469 174.253906 269.480469 169.515625 270.453125 164.800781 C 271.382812 160.28125 269.191406 156.816406 264.503906 155.636719 Z M 171.210938 184.71875 C 168.320312 184.792969 166.40625 183.652344 165.394531 180.417969 C 164.007812 175.988281 161.9375 166.746094 161.914062 166.664062 C 159.730469 159.925781 163.855469 156.933594 171.210938 158.347656 L 171.210938 162.261719 C 171.179688 162.261719 171.140625 165.515625 171.214844 165.53125 Z M 254.8125 189.339844 C 254.796875 191.089844 254.503906 193.0625 253.628906 194.546875 C 245.5625 208.199219 234.210938 218.128906 217.945312 222.070312 C 212.300781 223.4375 207.015625 221.472656 202.101562 219.121094 C 191.820312 214.191406 183.59375 206.957031 177.304688 197.742188 C 175.246094 194.722656 174.144531 191.484375 174.300781 187.777344 C 174.511719 182.875 174.351562 177.960938 174.351562 173.050781 C 174.351562 172.449219 174.398438 171.84375 174.34375 171.246094 C 173.136719 157.769531 175.9375 132.808594 175.9375 132.316406 C 175.9375 116.089844 193.007812 102.890625 213.992188 102.890625 C 234.972656 102.890625 252.730469 116.089844 252.730469 132.316406 C 252.730469 132.648438 252.859375 133.042969 252.847656 133.371094 C 254.289062 134.746094 253.226562 147.859375 254.71875 154.476562 C 254.882812 155.226562 254.855469 156.019531 254.855469 156.789062 C 254.867188 167.640625 254.914062 178.492188 254.8125 189.339844 Z M 267.742188 163.675781 C 266.671875 169.328125 265.367188 174.953125 263.785156 180.488281 C 262.886719 183.617188 261.203125 184.558594 258 184.859375 L 258 165.574219 C 258.007812 165.570312 258.015625 165.570312 258.019531 165.570312 C 258.015625 165.507812 258.003906 165.453125 258.003906 165.386719 L 258.003906 161.3125 C 257.980469 161.300781 257.957031 161.289062 257.933594 161.277344 L 257.933594 158.027344 C 259.65625 158.027344 261.257812 157.921875 262.839844 158.050781 C 266.042969 158.308594 268.3125 160.636719 267.742188 163.675781 Z M 267.742188 163.675781 " fill-opacity="1" fill-rule="nonzero"/><path fill="#fdfcef" d="M 91.125 226.671875 C 91.125 226.671875 136.4375 226.671875 136.714844 226.671875 C 147.179688 226.671875 155.660156 218.1875 155.660156 207.722656 C 155.660156 198.597656 149.203125 190.976562 140.605469 189.183594 C 140.707031 188.382812 140.773438 187.574219 140.773438 186.75 C 140.773438 175.914062 131.984375 167.125 121.148438 167.125 C 114.75 167.125 109.082031 170.203125 105.5 174.945312 C 104.585938 162.878906 93.808594 153.574219 81.199219 155.117188 C 71.980469 156.242188 64.355469 163.371094 62.660156 172.5 C 62.117188 175.433594 62.167969 178.273438 62.710938 180.9375 C 60.238281 178.277344 56.71875 176.601562 52.800781 176.601562 C 45.632812 176.601562 39.773438 182.1875 39.3125 189.242188 C 36.058594 188.519531 32.515625 188.566406 28.785156 189.96875 C 21.652344 192.648438 16.574219 199.359375 16.277344 206.972656 C 15.855469 217.78125 24.492188 226.679688 35.210938 226.679688 C 36.023438 226.679688 38.882812 226.679688 39.542969 226.679688 L 78.886719 226.679688 " fill-opacity="1" fill-rule="nonzero"/><g clip-path="url(#4f0da911f4)"><path fill="#472b29" d="M 136.714844 228.609375 L 91.125 228.609375 C 90.054688 228.609375 89.1875 227.738281 89.1875 226.671875 C 89.1875 225.601562 90.054688 224.734375 91.125 224.734375 L 136.714844 224.734375 C 146.09375 224.734375 153.726562 217.101562 153.726562 207.722656 C 153.726562 199.714844 148.042969 192.710938 140.214844 191.078125 C 139.226562 190.871094 138.5625 189.941406 138.6875 188.9375 C 138.777344 188.21875 138.835938 187.488281 138.835938 186.75 C 138.835938 176.992188 130.902344 169.0625 121.15625 169.0625 C 115.582031 169.0625 110.441406 171.632812 107.054688 176.109375 C 106.570312 176.753906 105.746094 177.027344 104.964844 176.800781 C 104.191406 176.570312 103.636719 175.894531 103.578125 175.089844 C 103.175781 169.753906 100.558594 164.738281 96.410156 161.335938 C 92.210938 157.894531 86.890625 156.367188 81.449219 157.039062 C 73.054688 158.070312 66.117188 164.570312 64.578125 172.855469 C 64.097656 175.441406 64.113281 178.027344 64.628906 180.550781 C 64.796875 181.402344 64.386719 182.265625 63.613281 182.660156 C 62.835938 183.0625 61.894531 182.890625 61.304688 182.257812 C 59.078125 179.863281 56.0625 178.539062 52.816406 178.539062 C 46.734375 178.539062 41.664062 183.300781 41.261719 189.367188 C 41.226562 189.933594 40.945312 190.449219 40.492188 190.785156 C 40.039062 191.132812 39.453125 191.25 38.910156 191.132812 C 35.652344 190.414062 32.566406 190.621094 29.480469 191.777344 C 23.011719 194.207031 18.492188 200.339844 18.230469 207.039062 C 18.046875 211.71875 19.730469 216.148438 22.960938 219.511719 C 26.199219 222.878906 30.554688 224.738281 35.226562 224.738281 L 78.902344 224.738281 C 79.972656 224.738281 80.839844 225.605469 80.839844 226.675781 C 80.839844 227.742188 79.972656 228.613281 78.902344 228.613281 L 35.21875 228.613281 C 29.484375 228.613281 24.140625 226.332031 20.164062 222.203125 C 16.191406 218.070312 14.125 212.632812 14.351562 206.894531 C 14.671875 198.652344 20.203125 191.125 28.109375 188.15625 C 31.210938 186.988281 34.410156 186.613281 37.675781 186.996094 C 39.136719 179.933594 45.417969 174.664062 52.808594 174.664062 C 55.460938 174.664062 58.058594 175.363281 60.34375 176.640625 C 60.34375 175.144531 60.480469 173.648438 60.753906 172.148438 C 62.605469 162.21875 70.914062 154.425781 80.96875 153.195312 C 87.476562 152.398438 93.835938 154.226562 98.859375 158.339844 C 102.746094 161.53125 105.507812 165.902344 106.757812 170.714844 C 110.679688 167.164062 115.746094 165.1875 121.152344 165.1875 C 133.039062 165.1875 142.710938 174.863281 142.710938 186.75 C 142.710938 187.070312 142.703125 187.390625 142.683594 187.710938 C 151.417969 190.316406 157.597656 198.46875 157.597656 207.722656 C 157.601562 219.246094 148.234375 228.609375 136.714844 228.609375 Z M 136.714844 228.609375 " fill-opacity="1" fill-rule="nonzero"/></g><path fill="#fdfcef" d="M 80.144531 184.9375 C 73.136719 184.476562 67.105469 189.316406 66.671875 195.746094 C 66.621094 196.546875 66.652344 197.332031 66.769531 198.097656 C 65.417969 196.570312 63.417969 195.535156 61.121094 195.382812 C 56.914062 195.109375 53.28125 197.882812 52.753906 201.660156 C 51.992188 201.453125 51.195312 201.3125 50.367188 201.257812 C 44.238281 200.855469 38.957031 205.089844 38.578125 210.71875 " fill-opacity="1" fill-rule="nonzero"/><path fill="#472b29" d="M 38.582031 211.683594 C 38.558594 211.683594 38.535156 211.683594 38.515625 211.679688 C 37.980469 211.644531 37.578125 211.183594 37.613281 210.648438 C 38.027344 204.5 43.765625 199.839844 50.433594 200.285156 C 50.964844 200.320312 51.492188 200.386719 52.019531 200.492188 C 53.082031 196.738281 56.886719 194.117188 61.1875 194.417969 C 62.835938 194.523438 64.378906 195.035156 65.699219 195.898438 C 65.699219 195.824219 65.707031 195.753906 65.710938 195.679688 C 66.175781 188.726562 72.636719 183.433594 80.214844 183.972656 C 80.75 184.007812 81.152344 184.46875 81.117188 185.003906 C 81.085938 185.539062 80.636719 185.992188 80.089844 185.902344 C 73.6875 185.496094 68.042969 189.921875 67.644531 195.8125 C 67.601562 196.527344 67.632812 197.246094 67.734375 197.957031 C 67.800781 198.378906 67.578125 198.796875 67.1875 198.980469 C 66.800781 199.160156 66.339844 199.066406 66.054688 198.742188 C 64.800781 197.328125 63.03125 196.480469 61.066406 196.351562 C 57.378906 196.21875 54.1875 198.507812 53.722656 201.792969 C 53.6875 202.070312 53.53125 202.316406 53.296875 202.472656 C 53.066406 202.621094 52.78125 202.667969 52.507812 202.59375 C 51.78125 202.398438 51.046875 202.273438 50.308594 202.21875 C 44.730469 201.863281 39.894531 205.691406 39.554688 210.78125 C 39.511719 211.292969 39.085938 211.683594 38.582031 211.683594 Z M 38.582031 211.683594 " fill-opacity="1" fill-rule="nonzero"/><path fill="#fdfcef" d="M 144.386719 191.402344 C 137.804688 188.296875 130.1875 190.496094 127.378906 196.3125 C 127.027344 197.035156 126.769531 197.78125 126.597656 198.539062 " fill-opacity="1" fill-rule="nonzero"/><path fill="#472b29" d="M 126.597656 199.507812 C 126.527344 199.507812 126.453125 199.5 126.382812 199.484375 C 125.863281 199.363281 125.53125 198.84375 125.652344 198.320312 C 125.84375 197.480469 126.128906 196.660156 126.5 195.890625 C 129.535156 189.609375 137.75 187.214844 144.800781 190.523438 C 145.285156 190.753906 145.492188 191.328125 145.265625 191.8125 C 145.035156 192.300781 144.453125 192.496094 143.972656 192.277344 C 137.871094 189.394531 130.820312 191.398438 128.246094 196.730469 C 127.933594 197.371094 127.699219 198.050781 127.539062 198.75 C 127.4375 199.203125 127.039062 199.507812 126.597656 199.507812 Z M 126.597656 199.507812 " fill-opacity="1" fill-rule="nonzero"/><path fill="#472b29" d="M 215.429688 243.148438 C 206.089844 243.148438 195.152344 241.628906 185.417969 238.984375 C 184.902344 238.84375 184.597656 238.308594 184.734375 237.792969 C 184.875 237.277344 185.402344 236.980469 185.925781 237.109375 C 195.503906 239.714844 206.257812 241.210938 215.429688 241.210938 C 219.027344 241.210938 222.664062 241.027344 226.242188 240.671875 C 226.796875 240.613281 227.25 241.015625 227.300781 241.542969 C 227.355469 242.074219 226.964844 242.550781 226.433594 242.601562 C 222.796875 242.964844 219.09375 243.148438 215.429688 243.148438 Z M 215.429688 243.148438 " fill-opacity="1" fill-rule="nonzero"/><path fill="#472b29" d="M 233.375 241.667969 C 232.910156 241.667969 232.496094 241.332031 232.421875 240.855469 C 232.335938 240.328125 232.691406 239.828125 233.21875 239.742188 C 233.945312 239.625 234.679688 239.496094 235.402344 239.355469 C 236.0625 239.230469 236.726562 239.097656 237.390625 238.960938 C 237.902344 238.878906 238.421875 239.1875 238.53125 239.714844 C 238.636719 240.238281 238.300781 240.75 237.777344 240.859375 C 237.109375 240.996094 236.433594 241.125 235.757812 241.257812 C 235.015625 241.398438 234.273438 241.527344 233.527344 241.65625 C 233.476562 241.664062 233.421875 241.667969 233.375 241.667969 Z M 233.375 241.667969 " fill-opacity="1" fill-rule="nonzero"/><path fill="#472b29" d="M 197.703125 265.273438 C 197.691406 265.273438 197.679688 265.273438 197.667969 265.273438 C 197.363281 265.261719 197.082031 265.109375 196.910156 264.855469 L 179.0625 238.984375 C 178.753906 238.546875 178.867188 237.941406 179.304688 237.632812 C 179.746094 237.335938 180.347656 237.445312 180.652344 237.882812 L 197.769531 262.683594 L 213.746094 242.871094 C 214.117188 242.417969 214.886719 242.417969 215.257812 242.871094 L 231.21875 262.667969 L 247.367188 238.375 C 247.664062 237.925781 248.265625 237.808594 248.710938 238.105469 C 249.15625 238.402344 249.277344 239.003906 248.980469 239.453125 L 232.101562 264.839844 C 231.929688 265.097656 231.648438 265.253906 231.339844 265.269531 C 231.039062 265.214844 230.734375 265.152344 230.539062 264.910156 L 214.496094 245.023438 L 198.460938 264.914062 C 198.273438 265.144531 198 265.273438 197.703125 265.273438 Z M 197.703125 265.273438 " fill-opacity="1" fill-rule="nonzero"/><path fill="#472b29" d="M 204.929688 275.496094 C 204.863281 275.496094 204.800781 275.488281 204.734375 275.476562 C 204.210938 275.371094 203.871094 274.859375 203.976562 274.335938 L 205.308594 267.679688 C 205.332031 267.558594 205.882812 264.804688 208.570312 262.957031 C 207.054688 261.664062 205.046875 259.703125 204.21875 255.832031 C 204.105469 255.308594 204.441406 254.792969 204.964844 254.683594 C 205.5 254.554688 206.003906 254.902344 206.113281 255.421875 C 206.886719 259.015625 208.824219 260.640625 210.238281 261.820312 C 210.480469 262.023438 210.699219 262.214844 210.902344 262.390625 C 211.144531 262.609375 211.261719 262.933594 211.210938 263.257812 C 211.160156 263.582031 210.953125 263.855469 210.652344 263.992188 C 207.753906 265.3125 207.210938 268.015625 207.207031 268.042969 L 205.875 274.707031 C 205.78125 275.171875 205.378906 275.496094 204.929688 275.496094 Z M 204.929688 275.496094 " fill-opacity="1" fill-rule="nonzero"/><path fill="#472b29" d="M 223.941406 275.496094 C 223.484375 275.496094 223.082031 275.175781 222.988281 274.714844 L 221.65625 268.0625 C 221.632812 267.945312 221.074219 265.304688 218.207031 264 C 217.910156 263.863281 217.699219 263.589844 217.648438 263.265625 C 217.597656 262.941406 217.714844 262.617188 217.960938 262.398438 C 218.160156 262.21875 218.382812 262.027344 218.621094 261.828125 C 220.035156 260.644531 221.976562 259.019531 222.746094 255.429688 C 222.859375 254.90625 223.367188 254.558594 223.898438 254.691406 C 224.421875 254.800781 224.753906 255.316406 224.640625 255.839844 C 223.8125 259.710938 221.804688 261.671875 220.289062 262.964844 C 222.976562 264.8125 223.527344 267.570312 223.554688 267.699219 L 224.886719 274.34375 C 224.988281 274.867188 224.648438 275.378906 224.125 275.484375 C 224.066406 275.488281 224.003906 275.496094 223.941406 275.496094 Z M 223.941406 275.496094 " fill-opacity="1" fill-rule="nonzero"/><path fill="#afabd4" d="M 280.707031 322.695312 C 277.535156 321.800781 274.480469 320.550781 271.578125 318.976562 C 273.199219 313.554688 271.945312 308.664062 267.886719 304.71875 C 265.117188 302.023438 261.902344 300.65625 258.339844 300.65625 C 256.859375 300.65625 255.324219 300.898438 253.757812 301.382812 C 252.144531 298.507812 250.863281 295.484375 249.933594 292.351562 C 255.0625 289.628906 257.683594 285.210938 257.546875 279.453125 C 257.414062 273.9375 254.738281 269.742188 249.761719 267.203125 C 250.648438 264.054688 251.878906 261.015625 253.445312 258.125 C 255.078125 258.648438 256.671875 258.910156 258.207031 258.910156 C 261.863281 258.910156 265.148438 257.457031 267.960938 254.601562 C 271.945312 250.546875 273.0625 245.59375 271.253906 240.160156 C 274.082031 238.585938 277.109375 237.324219 280.292969 236.378906 C 282.921875 241.523438 287.214844 244.226562 292.832031 244.226562 C 293.261719 244.226562 293.707031 244.210938 294.160156 244.175781 C 299.382812 243.789062 303.316406 241.085938 305.664062 236.316406 C 308.796875 237.214844 311.828125 238.472656 314.71875 240.054688 C 312.933594 245.574219 314.105469 250.558594 318.1875 254.585938 C 320.988281 257.347656 324.222656 258.753906 327.8125 258.753906 C 329.378906 258.75 331 258.476562 332.652344 257.925781 C 333.90625 260.242188 335.597656 264.28125 336.378906 266.972656 C 331.179688 269.679688 328.515625 274.117188 328.636719 279.914062 C 328.75 285.363281 331.382812 289.542969 336.289062 292.136719 C 335.375 295.269531 334.105469 298.304688 332.503906 301.1875 C 330.941406 300.726562 329.417969 300.492188 327.957031 300.492188 C 323.902344 300.492188 320.367188 302.214844 317.449219 305.613281 C 314.191406 309.410156 313.289062 313.949219 314.78125 318.863281 C 311.898438 320.445312 308.84375 321.710938 305.671875 322.632812 C 303.125 317.886719 298.527344 315.109375 293.0625 315.109375 C 287.808594 315.183594 283.207031 318.097656 280.707031 322.695312 Z M 293.046875 268.628906 C 287.066406 268.628906 282.179688 273.480469 282.152344 279.4375 C 282.125 285.425781 286.992188 290.328125 293.003906 290.355469 C 298.957031 290.320312 303.730469 285.691406 303.902344 279.808594 C 303.988281 276.859375 302.910156 274.070312 300.867188 271.953125 C 298.832031 269.835938 296.09375 268.652344 293.15625 268.628906 C 293.148438 268.628906 293.054688 268.628906 293.046875 268.628906 Z M 293.046875 268.628906 " fill-opacity="1" fill-rule="nonzero"/><path fill="#472b29" d="M 306.925781 239.5625 C 308.5 240.105469 310.042969 240.746094 311.546875 241.476562 C 310.421875 247.105469 312.027344 252.328125 316.273438 256.519531 C 319.550781 259.753906 323.535156 261.464844 327.804688 261.464844 C 328.925781 261.464844 330.058594 261.347656 331.210938 261.117188 C 331.878906 262.558594 332.574219 264.257812 333.117188 265.757812 C 328.3125 269.019531 325.789062 273.933594 325.914062 279.96875 C 326.03125 285.625 328.523438 290.242188 333.042969 293.34375 C 332.488281 294.953125 331.828125 296.53125 331.070312 298.066406 C 330.011719 297.875 328.96875 297.777344 327.945312 297.777344 C 323.132812 297.777344 318.789062 299.878906 315.378906 303.851562 C 312.027344 307.757812 310.757812 312.460938 311.644531 317.433594 C 310.085938 318.191406 308.484375 318.855469 306.84375 319.417969 C 303.671875 315.003906 298.683594 312.398438 293.058594 312.398438 C 293.035156 312.398438 292.847656 312.398438 292.824219 312.398438 C 287.5 312.464844 282.632812 315.136719 279.511719 319.492188 C 277.863281 318.941406 276.261719 318.292969 274.699219 317.53125 C 275.671875 311.996094 273.996094 306.875 269.773438 302.769531 C 266.523438 299.609375 262.570312 297.9375 258.335938 297.9375 C 257.292969 297.9375 256.230469 298.039062 255.15625 298.238281 C 254.390625 296.714844 253.734375 295.15625 253.167969 293.554688 C 257.914062 290.285156 260.394531 285.390625 260.257812 279.382812 C 260.121094 273.652344 257.578125 269.019531 252.980469 265.949219 C 253.515625 264.359375 254.148438 262.800781 254.871094 261.285156 C 255.996094 261.507812 257.105469 261.617188 258.199219 261.617188 C 262.550781 261.617188 266.597656 259.84375 269.890625 256.492188 C 274.035156 252.285156 275.578125 247.101562 274.429688 241.550781 C 275.921875 240.824219 277.464844 240.179688 279.054688 239.621094 C 282.21875 244.378906 286.976562 246.941406 292.832031 246.941406 C 293.328125 246.941406 293.835938 246.921875 294.359375 246.882812 C 299.734375 246.488281 304.066406 243.9375 306.925781 239.5625 M 293.011719 293.070312 C 293.023438 293.070312 293.035156 293.070312 293.046875 293.070312 C 300.441406 293.027344 306.402344 287.238281 306.609375 279.890625 C 306.714844 276.210938 305.371094 272.722656 302.820312 270.074219 C 300.273438 267.429688 296.851562 265.953125 293.050781 265.917969 C 285.578125 265.917969 279.46875 271.976562 279.4375 279.425781 C 279.421875 283.058594 280.820312 286.476562 283.386719 289.054688 C 285.945312 291.628906 289.355469 293.054688 292.992188 293.070312 C 292.996094 293.070312 293.003906 293.070312 293.011719 293.070312 M 304.0625 233.105469 C 302.371094 238.019531 299.097656 241.097656 293.957031 241.480469 C 293.574219 241.507812 293.195312 241.519531 292.832031 241.519531 C 287.378906 241.519531 283.789062 238.429688 281.832031 233.152344 C 276.835938 234.375 272.183594 236.304688 267.859375 239.011719 C 270.238281 244.027344 269.929688 248.722656 266.023438 252.695312 C 263.664062 255.097656 261.023438 256.199219 258.199219 256.199219 C 256.292969 256.199219 254.300781 255.699219 252.253906 254.753906 C 249.605469 259.109375 247.703125 263.769531 246.5625 268.761719 C 251.644531 270.621094 254.707031 274.105469 254.832031 279.511719 C 254.964844 285.136719 251.9375 288.816406 246.71875 290.839844 C 247.917969 295.792969 249.878906 300.402344 252.582031 304.714844 C 254.5625 303.832031 256.492188 303.363281 258.339844 303.363281 C 261.09375 303.363281 263.675781 304.402344 265.996094 306.660156 C 269.953125 310.511719 270.433594 315.160156 268.246094 320.1875 C 272.605469 322.839844 277.238281 324.734375 282.207031 325.875 C 282.277344 325.730469 282.335938 325.640625 282.371094 325.546875 C 284.167969 320.875 288.238281 317.882812 292.898438 317.824219 C 292.953125 317.824219 293.007812 317.824219 293.0625 317.824219 C 297.972656 317.824219 302.03125 320.59375 303.917969 325.289062 C 304.058594 325.636719 304.210938 325.746094 304.433594 325.746094 C 304.542969 325.746094 304.664062 325.71875 304.808594 325.683594 C 309.296875 324.546875 313.535156 322.800781 317.511719 320.425781 C 317.726562 320.300781 317.933594 320.148438 318.105469 320.035156 C 316.082031 315.476562 316.269531 311.152344 319.503906 307.386719 C 321.957031 304.527344 324.8125 303.207031 327.953125 303.207031 C 329.78125 303.207031 331.707031 303.652344 333.707031 304.507812 C 336.390625 300.175781 338.320312 295.554688 339.492188 290.613281 C 334.488281 288.695312 331.457031 285.265625 331.34375 279.859375 C 331.222656 274.15625 334.308594 270.546875 339.476562 268.546875 C 339.164062 265.429688 335.535156 256.679688 333.703125 254.59375 C 331.683594 255.539062 329.710938 256.039062 327.8125 256.039062 C 325.042969 256.039062 322.4375 254.972656 320.089844 252.65625 C 316.070312 248.691406 315.757812 243.945312 318.089844 238.878906 C 313.730469 236.199219 309.058594 234.261719 304.0625 233.105469 Z M 293.015625 287.644531 C 288.488281 287.625 284.839844 283.953125 284.863281 279.449219 C 284.882812 274.953125 288.527344 271.34375 293.054688 271.34375 C 293.082031 271.34375 293.105469 271.34375 293.132812 271.34375 C 297.683594 271.386719 301.320312 275.164062 301.1875 279.734375 C 301.070312 283.980469 297.613281 287.617188 293.015625 287.644531 Z M 293.015625 287.644531 " fill-opacity="1" fill-rule="nonzero"/><path fill="#7777ab" d="M 321.628906 272.214844 C 317.605469 256.421875 301.542969 246.878906 285.746094 250.894531 C 269.953125 254.917969 260.40625 270.984375 264.425781 286.777344 C 268.449219 302.570312 284.515625 312.113281 300.308594 308.09375 C 316.105469 304.074219 325.648438 288.007812 321.628906 272.214844 Z M 298.84375 302.332031 C 286.226562 305.546875 273.398438 297.921875 270.191406 285.308594 C 266.976562 272.691406 274.601562 259.863281 287.214844 256.65625 C 299.832031 253.441406 312.660156 261.066406 315.871094 273.679688 C 319.078125 286.296875 311.457031 299.125 298.84375 302.332031 Z M 298.84375 302.332031 " fill-opacity="1" fill-rule="nonzero"/><path fill="#472b29" d="M 269.132812 280.460938 C 268.597656 280.460938 268.164062 280.027344 268.164062 279.492188 C 268.164062 265.785156 279.3125 254.636719 293.027344 254.636719 C 296.722656 254.636719 300.277344 255.425781 303.589844 256.980469 C 304.074219 257.214844 304.28125 257.785156 304.054688 258.273438 C 303.824219 258.757812 303.246094 258.960938 302.761719 258.738281 C 299.710938 257.296875 296.4375 256.570312 293.027344 256.570312 C 280.386719 256.570312 270.101562 266.851562 270.101562 279.488281 C 270.101562 280.023438 269.667969 280.460938 269.132812 280.460938 Z M 293.027344 304.355469 C 282.105469 304.355469 272.570312 297.355469 269.296875 286.945312 C 269.140625 286.433594 269.421875 285.890625 269.933594 285.734375 C 270.449219 285.582031 270.988281 285.859375 271.148438 286.367188 C 274.160156 295.96875 282.949219 302.421875 293.023438 302.421875 C 298.199219 302.421875 303.089844 300.734375 307.148438 297.550781 C 307.574219 297.222656 308.175781 297.292969 308.511719 297.714844 C 308.839844 298.132812 308.765625 298.742188 308.347656 299.074219 C 303.941406 302.527344 298.640625 304.355469 293.027344 304.355469 Z M 311.699219 295.367188 C 311.488281 295.367188 311.273438 295.296875 311.09375 295.15625 C 310.675781 294.820312 310.609375 294.214844 310.945312 293.789062 C 314.21875 289.691406 315.953125 284.746094 315.953125 279.488281 C 315.953125 276.605469 315.425781 273.796875 314.382812 271.140625 C 314.1875 270.644531 314.433594 270.085938 314.933594 269.890625 C 315.4375 269.691406 315.996094 269.941406 316.1875 270.441406 C 317.316406 273.320312 317.890625 276.367188 317.890625 279.492188 C 317.890625 285.199219 316.015625 290.558594 312.460938 295.007812 C 312.265625 295.246094 311.984375 295.367188 311.699219 295.367188 Z M 311.699219 295.367188 " fill-opacity="1" fill-rule="nonzero"/><path fill="#472b29" d="M 312.707031 266.917969 C 312.402344 266.917969 312.097656 266.769531 311.910156 266.5 C 310.671875 264.703125 309.183594 263.09375 307.484375 261.714844 C 307.070312 261.371094 307.003906 260.761719 307.34375 260.34375 C 307.683594 259.929688 308.292969 259.875 308.707031 260.207031 C 310.554688 261.707031 312.164062 263.453125 313.507812 265.402344 C 313.808594 265.839844 313.695312 266.449219 313.257812 266.75 C 313.089844 266.859375 312.902344 266.917969 312.707031 266.917969 Z M 312.707031 266.917969 " fill-opacity="1" fill-rule="nonzero"/></svg>