<svg xmlns="http://www.w3.org/2000/svg" xmlns:xlink="http://www.w3.org/1999/xlink" width="200" zoomAndPan="magnify" viewBox="0 0 150 149.999998" height="200" preserveAspectRatio="xMidYMid meet" version="1.0"><defs><g/></defs><g fill="#ffffff" fill-opacity="0.4196"><g transform="translate(31.145123, 74.77806)"><g><path d="M 0.640625 0 C 0.515625 0 0.410156 -0.0390625 0.328125 -0.125 C 0.253906 -0.207031 0.226562 -0.328125 0.25 -0.484375 L 2.90625 -22.0625 C 2.925781 -22.21875 2.984375 -22.335938 3.078125 -22.421875 C 3.171875 -22.503906 3.285156 -22.546875 3.421875 -22.546875 L 8.375 -22.546875 C 8.5 -22.546875 8.597656 -22.503906 8.671875 -22.421875 C 8.753906 -22.335938 8.785156 -22.21875 8.765625 -22.0625 L 7.984375 -15.59375 C 7.960938 -15.507812 7.972656 -15.46875 8.015625 -15.46875 C 8.066406 -15.46875 8.113281 -15.5 8.15625 -15.5625 L 11.625 -22.171875 C 11.757812 -22.421875 11.96875 -22.546875 12.25 -22.546875 L 17.390625 -22.546875 C 17.648438 -22.546875 17.78125 -22.453125 17.78125 -22.265625 C 17.78125 -22.179688 17.75 -22.082031 17.6875 -21.96875 L 12.109375 -12.4375 C 12.085938 -12.351562 12.078125 -12.289062 12.078125 -12.25 L 15.203125 -0.546875 L 15.203125 -0.421875 C 15.203125 -0.140625 15.050781 0 14.75 0 L 9.5625 0 C 9.289062 0 9.117188 -0.128906 9.046875 -0.390625 L 7.40625 -7.03125 C 7.40625 -7.09375 7.382812 -7.128906 7.34375 -7.140625 C 7.300781 -7.148438 7.269531 -7.113281 7.25 -7.03125 L 6.859375 -6.3125 L 6.828125 -6.125 L 6.125 -0.484375 C 6.101562 -0.328125 6.039062 -0.207031 5.9375 -0.125 C 5.84375 -0.0390625 5.734375 0 5.609375 0 Z M 0.640625 0 "/></g></g></g><g fill="#ffffff" fill-opacity="0.4196"><g transform="translate(47.278899, 74.77806)"><g><path d="M 14.890625 -17.84375 C 14.867188 -17.695312 14.804688 -17.578125 14.703125 -17.484375 C 14.609375 -17.398438 14.488281 -17.359375 14.34375 -17.359375 L 8.34375 -17.359375 C 8.238281 -17.359375 8.1875 -17.304688 8.1875 -17.203125 L 7.796875 -14.046875 C 7.753906 -13.941406 7.796875 -13.890625 7.921875 -13.890625 L 11.046875 -13.890625 C 11.203125 -13.890625 11.316406 -13.84375 11.390625 -13.75 C 11.460938 -13.664062 11.488281 -13.550781 11.46875 -13.40625 L 10.953125 -9.1875 C 10.890625 -8.863281 10.707031 -8.703125 10.40625 -8.703125 L 7.28125 -8.703125 C 7.175781 -8.703125 7.125 -8.644531 7.125 -8.53125 L 6.734375 -5.34375 C 6.691406 -5.238281 6.734375 -5.1875 6.859375 -5.1875 L 12.859375 -5.1875 C 13.003906 -5.1875 13.113281 -5.140625 13.1875 -5.046875 C 13.269531 -4.960938 13.300781 -4.847656 13.28125 -4.703125 L 12.765625 -0.484375 C 12.734375 -0.328125 12.671875 -0.207031 12.578125 -0.125 C 12.484375 -0.0390625 12.359375 0 12.203125 0 L 0.640625 0 C 0.515625 0 0.410156 -0.0390625 0.328125 -0.125 C 0.253906 -0.207031 0.226562 -0.328125 0.25 -0.484375 L 2.90625 -22.0625 C 2.925781 -22.21875 2.984375 -22.335938 3.078125 -22.421875 C 3.171875 -22.503906 3.285156 -22.546875 3.421875 -22.546875 L 14.984375 -22.546875 C 15.128906 -22.546875 15.238281 -22.503906 15.3125 -22.421875 C 15.394531 -22.335938 15.425781 -22.21875 15.40625 -22.0625 Z M 14.890625 -17.84375 "/></g></g></g><g fill="#ffffff" fill-opacity="0.4196"><g transform="translate(61.158453, 74.77806)"><g><path d="M 8.734375 0 C 8.472656 0 8.320312 -0.140625 8.28125 -0.421875 L 7.34375 -8.53125 C 7.34375 -8.625 7.3125 -8.671875 7.25 -8.671875 C 7.164062 -8.671875 7.125 -8.613281 7.125 -8.5 L 6.125 -0.484375 C 6.101562 -0.328125 6.039062 -0.207031 5.9375 -0.125 C 5.84375 -0.0390625 5.734375 0 5.609375 0 L 0.640625 0 C 0.515625 0 0.410156 -0.0390625 0.328125 -0.125 C 0.253906 -0.207031 0.226562 -0.328125 0.25 -0.484375 L 2.90625 -22.0625 C 2.925781 -22.21875 2.984375 -22.335938 3.078125 -22.421875 C 3.171875 -22.503906 3.285156 -22.546875 3.421875 -22.546875 L 10.46875 -22.546875 C 12.1875 -22.546875 13.546875 -22 14.546875 -20.90625 C 15.546875 -19.8125 16.046875 -18.363281 16.046875 -16.5625 C 16.046875 -16.039062 16.023438 -15.644531 15.984375 -15.375 C 15.828125 -14.1875 15.488281 -13.125 14.96875 -12.1875 C 14.457031 -11.257812 13.796875 -10.503906 12.984375 -9.921875 C 12.878906 -9.859375 12.847656 -9.785156 12.890625 -9.703125 L 14.265625 -0.546875 L 14.265625 -0.421875 C 14.265625 -0.285156 14.222656 -0.179688 14.140625 -0.109375 C 14.054688 -0.0351562 13.953125 0 13.828125 0 Z M 8.34375 -17.359375 C 8.238281 -17.359375 8.1875 -17.304688 8.1875 -17.203125 L 7.703125 -13.4375 C 7.703125 -13.332031 7.753906 -13.28125 7.859375 -13.28125 L 8.28125 -13.28125 C 8.789062 -13.28125 9.222656 -13.503906 9.578125 -13.953125 C 9.929688 -14.398438 10.109375 -15.019531 10.109375 -15.8125 C 10.109375 -16.3125 9.988281 -16.691406 9.75 -16.953125 C 9.519531 -17.222656 9.203125 -17.359375 8.796875 -17.359375 Z M 8.34375 -17.359375 "/></g></g></g><g fill="#ffffff" fill-opacity="0.4196"><g transform="translate(76.454946, 74.77806)"><g><path d="M 11.953125 -22.0625 C 11.972656 -22.21875 12.03125 -22.335938 12.125 -22.421875 C 12.226562 -22.503906 12.351562 -22.546875 12.5 -22.546875 L 17.359375 -22.546875 C 17.515625 -22.546875 17.628906 -22.503906 17.703125 -22.421875 C 17.773438 -22.335938 17.800781 -22.21875 17.78125 -22.0625 L 15.109375 -0.484375 C 15.085938 -0.328125 15.035156 -0.207031 14.953125 -0.125 C 14.867188 -0.0390625 14.75 0 14.59375 0 L 9.015625 0 C 8.765625 0 8.613281 -0.140625 8.5625 -0.421875 L 7.34375 -10.3125 C 7.34375 -10.375 7.320312 -10.40625 7.28125 -10.40625 C 7.238281 -10.40625 7.21875 -10.375 7.21875 -10.3125 L 6.0625 -0.484375 C 6.039062 -0.328125 5.976562 -0.207031 5.875 -0.125 C 5.78125 -0.0390625 5.671875 0 5.546875 0 L 0.640625 0 C 0.515625 0 0.410156 -0.0390625 0.328125 -0.125 C 0.253906 -0.207031 0.226562 -0.328125 0.25 -0.484375 L 2.90625 -22.0625 C 2.925781 -22.21875 2.984375 -22.335938 3.078125 -22.421875 C 3.171875 -22.503906 3.285156 -22.546875 3.421875 -22.546875 L 8.921875 -22.546875 C 9.179688 -22.546875 9.332031 -22.410156 9.375 -22.140625 L 10.625 -12.171875 C 10.625 -12.109375 10.644531 -12.085938 10.6875 -12.109375 C 10.738281 -12.128906 10.773438 -12.160156 10.796875 -12.203125 Z M 11.953125 -22.0625 "/></g></g></g><g fill="#ffffff" fill-opacity="0.4196"><g transform="translate(92.942952, 74.77806)"><g><path d="M 14.890625 -17.84375 C 14.867188 -17.695312 14.804688 -17.578125 14.703125 -17.484375 C 14.609375 -17.398438 14.488281 -17.359375 14.34375 -17.359375 L 8.34375 -17.359375 C 8.238281 -17.359375 8.1875 -17.304688 8.1875 -17.203125 L 7.796875 -14.046875 C 7.753906 -13.941406 7.796875 -13.890625 7.921875 -13.890625 L 11.046875 -13.890625 C 11.203125 -13.890625 11.316406 -13.84375 11.390625 -13.75 C 11.460938 -13.664062 11.488281 -13.550781 11.46875 -13.40625 L 10.953125 -9.1875 C 10.890625 -8.863281 10.707031 -8.703125 10.40625 -8.703125 L 7.28125 -8.703125 C 7.175781 -8.703125 7.125 -8.644531 7.125 -8.53125 L 6.734375 -5.34375 C 6.691406 -5.238281 6.734375 -5.1875 6.859375 -5.1875 L 12.859375 -5.1875 C 13.003906 -5.1875 13.113281 -5.140625 13.1875 -5.046875 C 13.269531 -4.960938 13.300781 -4.847656 13.28125 -4.703125 L 12.765625 -0.484375 C 12.734375 -0.328125 12.671875 -0.207031 12.578125 -0.125 C 12.484375 -0.0390625 12.359375 0 12.203125 0 L 0.640625 0 C 0.515625 0 0.410156 -0.0390625 0.328125 -0.125 C 0.253906 -0.207031 0.226562 -0.328125 0.25 -0.484375 L 2.90625 -22.0625 C 2.925781 -22.21875 2.984375 -22.335938 3.078125 -22.421875 C 3.171875 -22.503906 3.285156 -22.546875 3.421875 -22.546875 L 14.984375 -22.546875 C 15.128906 -22.546875 15.238281 -22.503906 15.3125 -22.421875 C 15.394531 -22.335938 15.425781 -22.21875 15.40625 -22.0625 Z M 14.890625 -17.84375 "/></g></g></g><g fill="#ffffff" fill-opacity="0.4196"><g transform="translate(106.822506, 74.77806)"><g><path d="M 0.640625 0 C 0.515625 0 0.410156 -0.0390625 0.328125 -0.125 C 0.253906 -0.207031 0.226562 -0.328125 0.25 -0.484375 L 2.90625 -22.0625 C 2.925781 -22.21875 2.984375 -22.335938 3.078125 -22.421875 C 3.171875 -22.503906 3.285156 -22.546875 3.421875 -22.546875 L 8.375 -22.546875 C 8.5 -22.546875 8.597656 -22.503906 8.671875 -22.421875 C 8.753906 -22.335938 8.785156 -22.21875 8.765625 -22.0625 L 6.734375 -5.34375 C 6.691406 -5.238281 6.734375 -5.1875 6.859375 -5.1875 L 12.984375 -5.1875 C 13.128906 -5.1875 13.238281 -5.140625 13.3125 -5.046875 C 13.394531 -4.960938 13.425781 -4.847656 13.40625 -4.703125 L 12.890625 -0.484375 C 12.828125 -0.160156 12.644531 0 12.34375 0 Z M 0.640625 0 "/></g></g></g><g fill="#ffb562" fill-opacity="1"><g transform="translate(30.187499, 73.915812)"><g><path d="M 0.640625 0 C 0.515625 0 0.410156 -0.0390625 0.328125 -0.125 C 0.253906 -0.207031 0.226562 -0.328125 0.25 -0.484375 L 2.90625 -22.0625 C 2.925781 -22.21875 2.984375 -22.335938 3.078125 -22.421875 C 3.171875 -22.503906 3.285156 -22.546875 3.421875 -22.546875 L 8.375 -22.546875 C 8.5 -22.546875 8.597656 -22.503906 8.671875 -22.421875 C 8.753906 -22.335938 8.785156 -22.21875 8.765625 -22.0625 L 7.984375 -15.59375 C 7.960938 -15.507812 7.972656 -15.46875 8.015625 -15.46875 C 8.066406 -15.46875 8.113281 -15.5 8.15625 -15.5625 L 11.625 -22.171875 C 11.757812 -22.421875 11.96875 -22.546875 12.25 -22.546875 L 17.390625 -22.546875 C 17.648438 -22.546875 17.78125 -22.453125 17.78125 -22.265625 C 17.78125 -22.179688 17.75 -22.082031 17.6875 -21.96875 L 12.109375 -12.4375 C 12.085938 -12.351562 12.078125 -12.289062 12.078125 -12.25 L 15.203125 -0.546875 L 15.203125 -0.421875 C 15.203125 -0.140625 15.050781 0 14.75 0 L 9.5625 0 C 9.289062 0 9.117188 -0.128906 9.046875 -0.390625 L 7.40625 -7.03125 C 7.40625 -7.09375 7.382812 -7.128906 7.34375 -7.140625 C 7.300781 -7.148438 7.269531 -7.113281 7.25 -7.03125 L 6.859375 -6.3125 L 6.828125 -6.125 L 6.125 -0.484375 C 6.101562 -0.328125 6.039062 -0.207031 5.9375 -0.125 C 5.84375 -0.0390625 5.734375 0 5.609375 0 Z M 0.640625 0 "/></g></g></g><g fill="#ffb562" fill-opacity="1"><g transform="translate(46.321276, 73.915812)"><g><path d="M 14.890625 -17.84375 C 14.867188 -17.695312 14.804688 -17.578125 14.703125 -17.484375 C 14.609375 -17.398438 14.488281 -17.359375 14.34375 -17.359375 L 8.34375 -17.359375 C 8.238281 -17.359375 8.1875 -17.304688 8.1875 -17.203125 L 7.796875 -14.046875 C 7.753906 -13.941406 7.796875 -13.890625 7.921875 -13.890625 L 11.046875 -13.890625 C 11.203125 -13.890625 11.316406 -13.84375 11.390625 -13.75 C 11.460938 -13.664062 11.488281 -13.550781 11.46875 -13.40625 L 10.953125 -9.1875 C 10.890625 -8.863281 10.707031 -8.703125 10.40625 -8.703125 L 7.28125 -8.703125 C 7.175781 -8.703125 7.125 -8.644531 7.125 -8.53125 L 6.734375 -5.34375 C 6.691406 -5.238281 6.734375 -5.1875 6.859375 -5.1875 L 12.859375 -5.1875 C 13.003906 -5.1875 13.113281 -5.140625 13.1875 -5.046875 C 13.269531 -4.960938 13.300781 -4.847656 13.28125 -4.703125 L 12.765625 -0.484375 C 12.734375 -0.328125 12.671875 -0.207031 12.578125 -0.125 C 12.484375 -0.0390625 12.359375 0 12.203125 0 L 0.640625 0 C 0.515625 0 0.410156 -0.0390625 0.328125 -0.125 C 0.253906 -0.207031 0.226562 -0.328125 0.25 -0.484375 L 2.90625 -22.0625 C 2.925781 -22.21875 2.984375 -22.335938 3.078125 -22.421875 C 3.171875 -22.503906 3.285156 -22.546875 3.421875 -22.546875 L 14.984375 -22.546875 C 15.128906 -22.546875 15.238281 -22.503906 15.3125 -22.421875 C 15.394531 -22.335938 15.425781 -22.21875 15.40625 -22.0625 Z M 14.890625 -17.84375 "/></g></g></g><g fill="#ffb562" fill-opacity="1"><g transform="translate(60.20083, 73.915812)"><g><path d="M 8.734375 0 C 8.472656 0 8.320312 -0.140625 8.28125 -0.421875 L 7.34375 -8.53125 C 7.34375 -8.625 7.3125 -8.671875 7.25 -8.671875 C 7.164062 -8.671875 7.125 -8.613281 7.125 -8.5 L 6.125 -0.484375 C 6.101562 -0.328125 6.039062 -0.207031 5.9375 -0.125 C 5.84375 -0.0390625 5.734375 0 5.609375 0 L 0.640625 0 C 0.515625 0 0.410156 -0.0390625 0.328125 -0.125 C 0.253906 -0.207031 0.226562 -0.328125 0.25 -0.484375 L 2.90625 -22.0625 C 2.925781 -22.21875 2.984375 -22.335938 3.078125 -22.421875 C 3.171875 -22.503906 3.285156 -22.546875 3.421875 -22.546875 L 10.46875 -22.546875 C 12.1875 -22.546875 13.546875 -22 14.546875 -20.90625 C 15.546875 -19.8125 16.046875 -18.363281 16.046875 -16.5625 C 16.046875 -16.039062 16.023438 -15.644531 15.984375 -15.375 C 15.828125 -14.1875 15.488281 -13.125 14.96875 -12.1875 C 14.457031 -11.257812 13.796875 -10.503906 12.984375 -9.921875 C 12.878906 -9.859375 12.847656 -9.785156 12.890625 -9.703125 L 14.265625 -0.546875 L 14.265625 -0.421875 C 14.265625 -0.285156 14.222656 -0.179688 14.140625 -0.109375 C 14.054688 -0.0351562 13.953125 0 13.828125 0 Z M 8.34375 -17.359375 C 8.238281 -17.359375 8.1875 -17.304688 8.1875 -17.203125 L 7.703125 -13.4375 C 7.703125 -13.332031 7.753906 -13.28125 7.859375 -13.28125 L 8.28125 -13.28125 C 8.789062 -13.28125 9.222656 -13.503906 9.578125 -13.953125 C 9.929688 -14.398438 10.109375 -15.019531 10.109375 -15.8125 C 10.109375 -16.3125 9.988281 -16.691406 9.75 -16.953125 C 9.519531 -17.222656 9.203125 -17.359375 8.796875 -17.359375 Z M 8.34375 -17.359375 "/></g></g></g><g fill="#ffb562" fill-opacity="1"><g transform="translate(75.497323, 73.915812)"><g><path d="M 11.953125 -22.0625 C 11.972656 -22.21875 12.03125 -22.335938 12.125 -22.421875 C 12.226562 -22.503906 12.351562 -22.546875 12.5 -22.546875 L 17.359375 -22.546875 C 17.515625 -22.546875 17.628906 -22.503906 17.703125 -22.421875 C 17.773438 -22.335938 17.800781 -22.21875 17.78125 -22.0625 L 15.109375 -0.484375 C 15.085938 -0.328125 15.035156 -0.207031 14.953125 -0.125 C 14.867188 -0.0390625 14.75 0 14.59375 0 L 9.015625 0 C 8.765625 0 8.613281 -0.140625 8.5625 -0.421875 L 7.34375 -10.3125 C 7.34375 -10.375 7.320312 -10.40625 7.28125 -10.40625 C 7.238281 -10.40625 7.21875 -10.375 7.21875 -10.3125 L 6.0625 -0.484375 C 6.039062 -0.328125 5.976562 -0.207031 5.875 -0.125 C 5.78125 -0.0390625 5.671875 0 5.546875 0 L 0.640625 0 C 0.515625 0 0.410156 -0.0390625 0.328125 -0.125 C 0.253906 -0.207031 0.226562 -0.328125 0.25 -0.484375 L 2.90625 -22.0625 C 2.925781 -22.21875 2.984375 -22.335938 3.078125 -22.421875 C 3.171875 -22.503906 3.285156 -22.546875 3.421875 -22.546875 L 8.921875 -22.546875 C 9.179688 -22.546875 9.332031 -22.410156 9.375 -22.140625 L 10.625 -12.171875 C 10.625 -12.109375 10.644531 -12.085938 10.6875 -12.109375 C 10.738281 -12.128906 10.773438 -12.160156 10.796875 -12.203125 Z M 11.953125 -22.0625 "/></g></g></g><g fill="#ffb562" fill-opacity="1"><g transform="translate(91.985328, 73.915812)"><g><path d="M 14.890625 -17.84375 C 14.867188 -17.695312 14.804688 -17.578125 14.703125 -17.484375 C 14.609375 -17.398438 14.488281 -17.359375 14.34375 -17.359375 L 8.34375 -17.359375 C 8.238281 -17.359375 8.1875 -17.304688 8.1875 -17.203125 L 7.796875 -14.046875 C 7.753906 -13.941406 7.796875 -13.890625 7.921875 -13.890625 L 11.046875 -13.890625 C 11.203125 -13.890625 11.316406 -13.84375 11.390625 -13.75 C 11.460938 -13.664062 11.488281 -13.550781 11.46875 -13.40625 L 10.953125 -9.1875 C 10.890625 -8.863281 10.707031 -8.703125 10.40625 -8.703125 L 7.28125 -8.703125 C 7.175781 -8.703125 7.125 -8.644531 7.125 -8.53125 L 6.734375 -5.34375 C 6.691406 -5.238281 6.734375 -5.1875 6.859375 -5.1875 L 12.859375 -5.1875 C 13.003906 -5.1875 13.113281 -5.140625 13.1875 -5.046875 C 13.269531 -4.960938 13.300781 -4.847656 13.28125 -4.703125 L 12.765625 -0.484375 C 12.734375 -0.328125 12.671875 -0.207031 12.578125 -0.125 C 12.484375 -0.0390625 12.359375 0 12.203125 0 L 0.640625 0 C 0.515625 0 0.410156 -0.0390625 0.328125 -0.125 C 0.253906 -0.207031 0.226562 -0.328125 0.25 -0.484375 L 2.90625 -22.0625 C 2.925781 -22.21875 2.984375 -22.335938 3.078125 -22.421875 C 3.171875 -22.503906 3.285156 -22.546875 3.421875 -22.546875 L 14.984375 -22.546875 C 15.128906 -22.546875 15.238281 -22.503906 15.3125 -22.421875 C 15.394531 -22.335938 15.425781 -22.21875 15.40625 -22.0625 Z M 14.890625 -17.84375 "/></g></g></g><g fill="#ffb562" fill-opacity="1"><g transform="translate(105.864882, 73.915812)"><g><path d="M 0.640625 0 C 0.515625 0 0.410156 -0.0390625 0.328125 -0.125 C 0.253906 -0.207031 0.226562 -0.328125 0.25 -0.484375 L 2.90625 -22.0625 C 2.925781 -22.21875 2.984375 -22.335938 3.078125 -22.421875 C 3.171875 -22.503906 3.285156 -22.546875 3.421875 -22.546875 L 8.375 -22.546875 C 8.5 -22.546875 8.597656 -22.503906 8.671875 -22.421875 C 8.753906 -22.335938 8.785156 -22.21875 8.765625 -22.0625 L 6.734375 -5.34375 C 6.691406 -5.238281 6.734375 -5.1875 6.859375 -5.1875 L 12.984375 -5.1875 C 13.128906 -5.1875 13.238281 -5.140625 13.3125 -5.046875 C 13.394531 -4.960938 13.425781 -4.847656 13.40625 -4.703125 L 12.890625 -0.484375 C 12.828125 -0.160156 12.644531 0 12.34375 0 Z M 0.640625 0 "/></g></g></g><g fill="#ffffff" fill-opacity="0.4196"><g transform="translate(44.152934, 100.257565)"><g><path d="M 0.640625 0 C 0.515625 0 0.410156 -0.0390625 0.328125 -0.125 C 0.253906 -0.207031 0.226562 -0.328125 0.25 -0.484375 L 2.90625 -22.0625 C 2.925781 -22.21875 2.984375 -22.335938 3.078125 -22.421875 C 3.171875 -22.503906 3.285156 -22.546875 3.421875 -22.546875 L 8.375 -22.546875 C 8.5 -22.546875 8.597656 -22.503906 8.671875 -22.421875 C 8.753906 -22.335938 8.785156 -22.21875 8.765625 -22.0625 L 7.984375 -15.59375 C 7.960938 -15.507812 7.972656 -15.46875 8.015625 -15.46875 C 8.066406 -15.46875 8.113281 -15.5 8.15625 -15.5625 L 11.625 -22.171875 C 11.757812 -22.421875 11.96875 -22.546875 12.25 -22.546875 L 17.390625 -22.546875 C 17.648438 -22.546875 17.78125 -22.453125 17.78125 -22.265625 C 17.78125 -22.179688 17.75 -22.082031 17.6875 -21.96875 L 12.109375 -12.4375 C 12.085938 -12.351562 12.078125 -12.289062 12.078125 -12.25 L 15.203125 -0.546875 L 15.203125 -0.421875 C 15.203125 -0.140625 15.050781 0 14.75 0 L 9.5625 0 C 9.289062 0 9.117188 -0.128906 9.046875 -0.390625 L 7.40625 -7.03125 C 7.40625 -7.09375 7.382812 -7.128906 7.34375 -7.140625 C 7.300781 -7.148438 7.269531 -7.113281 7.25 -7.03125 L 6.859375 -6.3125 L 6.828125 -6.125 L 6.125 -0.484375 C 6.101562 -0.328125 6.039062 -0.207031 5.9375 -0.125 C 5.84375 -0.0390625 5.734375 0 5.609375 0 Z M 0.640625 0 "/></g></g></g><g fill="#ffffff" fill-opacity="0.4196"><g transform="translate(60.286711, 100.257565)"><g><path d="M 10.015625 0 C 9.710938 0 9.570312 -0.148438 9.59375 -0.453125 L 9.53125 -2.90625 C 9.550781 -2.945312 9.539062 -2.984375 9.5 -3.015625 C 9.457031 -3.046875 9.414062 -3.0625 9.375 -3.0625 L 6.578125 -3.0625 C 6.460938 -3.0625 6.382812 -3.007812 6.34375 -2.90625 L 5.734375 -0.453125 C 5.671875 -0.148438 5.488281 0 5.1875 0 L 0.296875 0 C -0.0234375 0 -0.144531 -0.171875 -0.0625 -0.515625 L 7.03125 -22.140625 C 7.113281 -22.410156 7.304688 -22.546875 7.609375 -22.546875 L 13.3125 -22.546875 C 13.601562 -22.546875 13.765625 -22.410156 13.796875 -22.140625 L 15.5625 -0.515625 L 15.5625 -0.453125 C 15.5625 -0.148438 15.398438 0 15.078125 0 Z M 7.671875 -7.859375 C 7.628906 -7.753906 7.660156 -7.703125 7.765625 -7.703125 L 9.28125 -7.703125 C 9.34375 -7.703125 9.394531 -7.753906 9.4375 -7.859375 L 9.3125 -13.828125 C 9.3125 -13.910156 9.285156 -13.945312 9.234375 -13.9375 C 9.179688 -13.925781 9.15625 -13.890625 9.15625 -13.828125 Z M 7.671875 -7.859375 "/></g></g></g><g fill="#ffffff" fill-opacity="0.4196"><g transform="translate(76.871327, 100.257565)"><g><path d="M 8.734375 0 C 8.472656 0 8.320312 -0.140625 8.28125 -0.421875 L 7.34375 -8.53125 C 7.34375 -8.625 7.3125 -8.671875 7.25 -8.671875 C 7.164062 -8.671875 7.125 -8.613281 7.125 -8.5 L 6.125 -0.484375 C 6.101562 -0.328125 6.039062 -0.207031 5.9375 -0.125 C 5.84375 -0.0390625 5.734375 0 5.609375 0 L 0.640625 0 C 0.515625 0 0.410156 -0.0390625 0.328125 -0.125 C 0.253906 -0.207031 0.226562 -0.328125 0.25 -0.484375 L 2.90625 -22.0625 C 2.925781 -22.21875 2.984375 -22.335938 3.078125 -22.421875 C 3.171875 -22.503906 3.285156 -22.546875 3.421875 -22.546875 L 10.46875 -22.546875 C 12.1875 -22.546875 13.546875 -22 14.546875 -20.90625 C 15.546875 -19.8125 16.046875 -18.363281 16.046875 -16.5625 C 16.046875 -16.039062 16.023438 -15.644531 15.984375 -15.375 C 15.828125 -14.1875 15.488281 -13.125 14.96875 -12.1875 C 14.457031 -11.257812 13.796875 -10.503906 12.984375 -9.921875 C 12.878906 -9.859375 12.847656 -9.785156 12.890625 -9.703125 L 14.265625 -0.546875 L 14.265625 -0.421875 C 14.265625 -0.285156 14.222656 -0.179688 14.140625 -0.109375 C 14.054688 -0.0351562 13.953125 0 13.828125 0 Z M 8.34375 -17.359375 C 8.238281 -17.359375 8.1875 -17.304688 8.1875 -17.203125 L 7.703125 -13.4375 C 7.703125 -13.332031 7.753906 -13.28125 7.859375 -13.28125 L 8.28125 -13.28125 C 8.789062 -13.28125 9.222656 -13.503906 9.578125 -13.953125 C 9.929688 -14.398438 10.109375 -15.019531 10.109375 -15.8125 C 10.109375 -16.3125 9.988281 -16.691406 9.75 -16.953125 C 9.519531 -17.222656 9.203125 -17.359375 8.796875 -17.359375 Z M 8.34375 -17.359375 "/></g></g></g><g fill="#ffffff" fill-opacity="0.4196"><g transform="translate(92.16782, 100.257565)"><g><path d="M 16.71875 -22.546875 C 16.851562 -22.546875 16.957031 -22.503906 17.03125 -22.421875 C 17.101562 -22.335938 17.128906 -22.21875 17.109375 -22.0625 L 16.59375 -17.84375 C 16.570312 -17.695312 16.515625 -17.578125 16.421875 -17.484375 C 16.335938 -17.398438 16.222656 -17.359375 16.078125 -17.359375 L 12.34375 -17.359375 C 12.226562 -17.359375 12.171875 -17.304688 12.171875 -17.203125 L 10.109375 -0.484375 C 10.085938 -0.328125 10.035156 -0.207031 9.953125 -0.125 C 9.867188 -0.0390625 9.75 0 9.59375 0 L 4.671875 0 C 4.523438 0 4.410156 -0.0390625 4.328125 -0.125 C 4.253906 -0.207031 4.226562 -0.328125 4.25 -0.484375 L 6.3125 -17.203125 C 6.3125 -17.304688 6.257812 -17.359375 6.15625 -17.359375 L 2.546875 -17.359375 C 2.390625 -17.359375 2.273438 -17.398438 2.203125 -17.484375 C 2.128906 -17.578125 2.101562 -17.695312 2.125 -17.84375 L 2.640625 -22.0625 C 2.660156 -22.21875 2.71875 -22.335938 2.8125 -22.421875 C 2.914062 -22.503906 3.039062 -22.546875 3.1875 -22.546875 Z M 16.71875 -22.546875 "/></g></g></g><g fill="#3ab0ff" fill-opacity="1"><g transform="translate(43.195311, 99.395322)"><g><path d="M 0.640625 0 C 0.515625 0 0.410156 -0.0390625 0.328125 -0.125 C 0.253906 -0.207031 0.226562 -0.328125 0.25 -0.484375 L 2.90625 -22.0625 C 2.925781 -22.21875 2.984375 -22.335938 3.078125 -22.421875 C 3.171875 -22.503906 3.285156 -22.546875 3.421875 -22.546875 L 8.375 -22.546875 C 8.5 -22.546875 8.597656 -22.503906 8.671875 -22.421875 C 8.753906 -22.335938 8.785156 -22.21875 8.765625 -22.0625 L 7.984375 -15.59375 C 7.960938 -15.507812 7.972656 -15.46875 8.015625 -15.46875 C 8.066406 -15.46875 8.113281 -15.5 8.15625 -15.5625 L 11.625 -22.171875 C 11.757812 -22.421875 11.96875 -22.546875 12.25 -22.546875 L 17.390625 -22.546875 C 17.648438 -22.546875 17.78125 -22.453125 17.78125 -22.265625 C 17.78125 -22.179688 17.75 -22.082031 17.6875 -21.96875 L 12.109375 -12.4375 C 12.085938 -12.351562 12.078125 -12.289062 12.078125 -12.25 L 15.203125 -0.546875 L 15.203125 -0.421875 C 15.203125 -0.140625 15.050781 0 14.75 0 L 9.5625 0 C 9.289062 0 9.117188 -0.128906 9.046875 -0.390625 L 7.40625 -7.03125 C 7.40625 -7.09375 7.382812 -7.128906 7.34375 -7.140625 C 7.300781 -7.148438 7.269531 -7.113281 7.25 -7.03125 L 6.859375 -6.3125 L 6.828125 -6.125 L 6.125 -0.484375 C 6.101562 -0.328125 6.039062 -0.207031 5.9375 -0.125 C 5.84375 -0.0390625 5.734375 0 5.609375 0 Z M 0.640625 0 "/></g></g></g><g fill="#3ab0ff" fill-opacity="1"><g transform="translate(59.329088, 99.395322)"><g><path d="M 10.015625 0 C 9.710938 0 9.570312 -0.148438 9.59375 -0.453125 L 9.53125 -2.90625 C 9.550781 -2.945312 9.539062 -2.984375 9.5 -3.015625 C 9.457031 -3.046875 9.414062 -3.0625 9.375 -3.0625 L 6.578125 -3.0625 C 6.460938 -3.0625 6.382812 -3.007812 6.34375 -2.90625 L 5.734375 -0.453125 C 5.671875 -0.148438 5.488281 0 5.1875 0 L 0.296875 0 C -0.0234375 0 -0.144531 -0.171875 -0.0625 -0.515625 L 7.03125 -22.140625 C 7.113281 -22.410156 7.304688 -22.546875 7.609375 -22.546875 L 13.3125 -22.546875 C 13.601562 -22.546875 13.765625 -22.410156 13.796875 -22.140625 L 15.5625 -0.515625 L 15.5625 -0.453125 C 15.5625 -0.148438 15.398438 0 15.078125 0 Z M 7.671875 -7.859375 C 7.628906 -7.753906 7.660156 -7.703125 7.765625 -7.703125 L 9.28125 -7.703125 C 9.34375 -7.703125 9.394531 -7.753906 9.4375 -7.859375 L 9.3125 -13.828125 C 9.3125 -13.910156 9.285156 -13.945312 9.234375 -13.9375 C 9.179688 -13.925781 9.15625 -13.890625 9.15625 -13.828125 Z M 7.671875 -7.859375 "/></g></g></g><g fill="#3ab0ff" fill-opacity="1"><g transform="translate(75.913704, 99.395322)"><g><path d="M 8.734375 0 C 8.472656 0 8.320312 -0.140625 8.28125 -0.421875 L 7.34375 -8.53125 C 7.34375 -8.625 7.3125 -8.671875 7.25 -8.671875 C 7.164062 -8.671875 7.125 -8.613281 7.125 -8.5 L 6.125 -0.484375 C 6.101562 -0.328125 6.039062 -0.207031 5.9375 -0.125 C 5.84375 -0.0390625 5.734375 0 5.609375 0 L 0.640625 0 C 0.515625 0 0.410156 -0.0390625 0.328125 -0.125 C 0.253906 -0.207031 0.226562 -0.328125 0.25 -0.484375 L 2.90625 -22.0625 C 2.925781 -22.21875 2.984375 -22.335938 3.078125 -22.421875 C 3.171875 -22.503906 3.285156 -22.546875 3.421875 -22.546875 L 10.46875 -22.546875 C 12.1875 -22.546875 13.546875 -22 14.546875 -20.90625 C 15.546875 -19.8125 16.046875 -18.363281 16.046875 -16.5625 C 16.046875 -16.039062 16.023438 -15.644531 15.984375 -15.375 C 15.828125 -14.1875 15.488281 -13.125 14.96875 -12.1875 C 14.457031 -11.257812 13.796875 -10.503906 12.984375 -9.921875 C 12.878906 -9.859375 12.847656 -9.785156 12.890625 -9.703125 L 14.265625 -0.546875 L 14.265625 -0.421875 C 14.265625 -0.285156 14.222656 -0.179688 14.140625 -0.109375 C 14.054688 -0.0351562 13.953125 0 13.828125 0 Z M 8.34375 -17.359375 C 8.238281 -17.359375 8.1875 -17.304688 8.1875 -17.203125 L 7.703125 -13.4375 C 7.703125 -13.332031 7.753906 -13.28125 7.859375 -13.28125 L 8.28125 -13.28125 C 8.789062 -13.28125 9.222656 -13.503906 9.578125 -13.953125 C 9.929688 -14.398438 10.109375 -15.019531 10.109375 -15.8125 C 10.109375 -16.3125 9.988281 -16.691406 9.75 -16.953125 C 9.519531 -17.222656 9.203125 -17.359375 8.796875 -17.359375 Z M 8.34375 -17.359375 "/></g></g></g><g fill="#3ab0ff" fill-opacity="1"><g transform="translate(91.210197, 99.395322)"><g><path d="M 16.71875 -22.546875 C 16.851562 -22.546875 16.957031 -22.503906 17.03125 -22.421875 C 17.101562 -22.335938 17.128906 -22.21875 17.109375 -22.0625 L 16.59375 -17.84375 C 16.570312 -17.695312 16.515625 -17.578125 16.421875 -17.484375 C 16.335938 -17.398438 16.222656 -17.359375 16.078125 -17.359375 L 12.34375 -17.359375 C 12.226562 -17.359375 12.171875 -17.304688 12.171875 -17.203125 L 10.109375 -0.484375 C 10.085938 -0.328125 10.035156 -0.207031 9.953125 -0.125 C 9.867188 -0.0390625 9.75 0 9.59375 0 L 4.671875 0 C 4.523438 0 4.410156 -0.0390625 4.328125 -0.125 C 4.253906 -0.207031 4.226562 -0.328125 4.25 -0.484375 L 6.3125 -17.203125 C 6.3125 -17.304688 6.257812 -17.359375 6.15625 -17.359375 L 2.546875 -17.359375 C 2.390625 -17.359375 2.273438 -17.398438 2.203125 -17.484375 C 2.128906 -17.578125 2.101562 -17.695312 2.125 -17.84375 L 2.640625 -22.0625 C 2.660156 -22.21875 2.71875 -22.335938 2.8125 -22.421875 C 2.914062 -22.503906 3.039062 -22.546875 3.1875 -22.546875 Z M 16.71875 -22.546875 "/></g></g></g></svg>